# Blender v2.92.0 OBJ File: 'astronauta_reloded_legs.blend'
# www.blender.org
mtllib astronauta_reloded_rightleg.mtl
o Astronauta_Cubo
v 0.085727 0.428905 -0.102194
v 0.085727 0.538353 -0.102194
v 0.167157 0.428270 -0.030646
v 0.163777 0.538353 -0.035562
v 0.138423 0.428905 0.072250
v 0.138423 0.538353 0.072250
v 0.056375 0.428905 0.072250
v 0.056375 0.538353 0.072251
v 0.021818 0.423524 -0.034739
v 0.021560 0.531520 -0.036987
v 0.084423 0.161172 -0.115943
v 0.173595 0.161172 -0.039815
v 0.148060 0.164110 0.082540
v 0.050888 0.161172 0.083362
v 0.021921 0.161172 -0.039815
v 0.086491 0.137792 -0.094582
v 0.158375 0.137792 -0.033214
v 0.135024 0.137792 0.066081
v 0.059458 0.137792 0.066081
v 0.036107 0.137792 -0.033214
v 0.088441 0.596786 -0.111462
v 0.167887 0.618458 -0.044157
v 0.133965 0.601657 0.066299
v 0.033321 0.593922 0.081725
v 0.022105 0.587114 -0.040400
v 0.086661 0.067704 -0.092828
v 0.157125 0.067704 -0.032672
v 0.134235 0.067704 0.064661
v 0.060162 0.067704 0.064661
v 0.037273 0.067704 -0.032672
v 0.087732 0.001242 -0.089607
v 0.157788 0.002202 -0.030714
v 0.134235 0.001241 0.064661
v 0.060162 0.001241 0.064661
v 0.037273 0.001242 -0.032672
v 0.150145 0.041091 0.074992
v 0.134235 0.039732 0.167151
v 0.060162 0.039732 0.167151
v 0.047062 0.034266 0.074159
v 0.157125 0.001242 0.082261
v 0.134235 0.001241 0.179595
v 0.060162 0.001242 0.179595
v 0.046582 0.001241 0.081217
v 0.037273 0.023538 -0.032672
v 0.157566 0.024176 -0.031371
v 0.087373 0.023538 -0.090687
v 0.046743 0.012320 0.078849
v 0.060162 0.014154 0.175420
v 0.134235 0.014154 0.175420
v 0.154783 0.014610 0.079822
v 0.087502 0.001146 -0.092735
v 0.160655 0.002296 -0.031987
v 0.034291 0.001222 -0.033652
v 0.034305 0.023517 -0.033693
v 0.043465 0.001334 0.081574
v 0.087125 0.023442 -0.093814
v 0.160217 0.001591 0.082667
v 0.135940 0.002164 0.182062
v 0.058341 0.002027 0.182027
v 0.043623 0.012398 0.079182
v 0.136319 0.015012 0.177604
v 0.160394 0.024260 -0.032728
v 0.057940 0.014835 0.177529
v 0.157887 0.014936 0.080157
v 0.170694 0.309480 -0.029664
v 0.166741 0.370741 -0.027310
v 0.167807 0.340045 -0.027260
v 0.085483 0.370755 -0.097370
v 0.085225 0.309154 -0.100035
v 0.085354 0.339953 -0.097092
v 0.051813 0.309235 0.086538
v 0.055363 0.370608 0.081649
v 0.054103 0.339934 0.085128
v 0.139556 0.370648 0.081642
v 0.140749 0.309335 0.083798
v 0.140153 0.339975 0.084323
v 0.027580 0.309128 -0.029827
v 0.026030 0.370573 -0.028900
v 0.027493 0.339893 -0.027773
v 0.084927 0.242222 -0.110482
v 0.085019 0.259766 -0.108404
v 0.177516 0.259677 -0.036432
v 0.178205 0.242216 -0.037826
v 0.141714 0.259702 0.079271
v 0.142507 0.242231 0.078887
v 0.045789 0.247918 0.086431
v 0.045590 0.230300 0.086072
v 0.026162 0.259777 -0.036715
v 0.025520 0.242219 -0.038124
vt 0.000000 0.000000
vt 0.000000 0.000000
vt 0.000000 0.000000
vt 0.000000 0.000000
vt 0.000000 0.000000
vt 0.078125 0.777344
vt 0.078125 0.777344
vt 0.078125 0.777344
vt 0.078125 0.777344
vt 0.078125 0.777344
vt 0.078125 0.780444
vt 0.078125 0.780444
vt 0.078125 0.780444
vt 0.078125 0.777344
vt 0.078125 0.777344
vt 0.078125 0.777344
vt 0.078125 0.777344
vt 0.078125 0.777344
vt 0.078125 0.777344
vt 0.078125 0.777344
vt 0.078125 0.777344
vt 0.078125 0.777344
vt 0.078125 0.777344
vt 0.078125 0.777344
vt 0.078125 0.780444
vt 0.078125 0.780444
vt 0.078125 0.777344
vt 0.078125 0.777344
vt 0.078125 0.777344
vt 0.078125 0.777344
vt 0.078125 0.777344
vt 0.078125 0.777344
vt 0.078125 0.777344
vt 0.078125 0.777344
vt 0.078125 0.777344
vt 0.078125 0.777344
vt 0.078125 0.780444
vt 0.078125 0.780444
vt 0.078125 0.780444
vt 0.078125 0.777344
vt 0.078125 0.777344
vt 0.078125 0.777344
vt 0.078125 0.777344
vt 0.078125 0.777344
vt 0.078125 0.777344
vt 0.078125 0.780444
vt 0.078125 0.780444
vt 0.078125 0.780444
vt 0.078125 0.777344
vt 0.078125 0.777344
vt 0.078125 0.777344
vt 0.078125 0.780444
vt 0.078125 0.780444
vt 0.078125 0.780444
vt 0.078125 0.780444
vt 0.078125 0.780444
vt 0.078125 0.777344
vt 0.078125 0.777344
vt 0.078125 0.777344
vt 0.078125 0.777344
vt 0.462574 0.653328
vt 0.462574 0.653328
vt 0.462574 0.653328
vt 0.078125 0.777344
vt 0.078125 0.777344
vt 0.078125 0.777344
vt 0.078125 0.777344
vt 0.078125 0.780444
vt 0.078125 0.780444
vt 0.462574 0.653328
vt 0.462574 0.653328
vt 0.462574 0.653328
vt 0.078125 0.780444
vt 0.078125 0.780444
vt 0.078125 0.777344
vt 0.078125 0.777344
vt 0.078125 0.777344
vt 0.462574 0.653328
vt 0.078125 0.777344
vt 0.078125 0.777344
vt 0.078125 0.777344
vt 0.078125 0.777344
vt 0.078125 0.777344
vt 0.078125 0.777344
vt 0.078125 0.777344
vt 0.078125 0.777344
vt 0.078125 0.780444
vt 0.078125 0.780444
vt 0.078125 0.780444
vt 0.078125 0.777344
vt 0.078125 0.777344
vt 0.078125 0.777344
vt 0.078125 0.777344
vt 0.078125 0.777344
vt 0.462574 0.656428
vt 0.462574 0.656428
vt 0.462574 0.656428
vt 0.078125 0.777344
vt 0.078125 0.777344
vt 0.078125 0.777344
vt 0.462574 0.653328
vt 0.462574 0.653328
vt 0.078125 0.780444
vt 0.078125 0.780444
vt 0.078125 0.777344
vt 0.078125 0.777344
vt 0.078125 0.777344
vt 0.462574 0.653328
vt 0.462574 0.653328
vt 0.462574 0.653328
vt 0.462574 0.653328
vt 0.462574 0.653328
vt 0.462574 0.653328
vt 0.462574 0.653328
vt 0.462574 0.653328
vt 0.462574 0.653328
vt 0.462574 0.656428
vt 0.462574 0.656428
vt 0.462574 0.656428
vt 0.462574 0.653328
vt 0.462574 0.653328
vt 0.078125 0.777344
vt 0.078125 0.777344
vt 0.078125 0.777344
vt 0.078125 0.777344
vt 0.078125 0.777344
vt 0.078125 0.780444
vt 0.078125 0.777344
vt 0.078125 0.777344
vt 0.078125 0.777344
vt 0.078125 0.777344
vt 0.078125 0.777344
vt 0.078125 0.777344
vt 0.078125 0.777344
vt 0.078125 0.777344
vt 0.078125 0.780444
vt 0.078125 0.780444
vt 0.078125 0.777344
vt 0.078125 0.777344
vt 0.189739 0.795946
vt 0.189739 0.795946
vt 0.189739 0.795946
vt 0.189739 0.795946
vt 0.189739 0.795946
vt 0.189739 0.799047
vt 0.189739 0.799047
vt 0.189739 0.799047
vt 0.189739 0.795946
vt 0.189739 0.795946
vt 0.189739 0.795946
vt 0.189739 0.795946
vt 0.078125 0.777344
vt 0.078125 0.780444
vt 0.078125 0.777344
vt 0.462574 0.653328
vt 0.078125 0.780444
vt 0.078125 0.777344
vt 0.462574 0.653328
vt 0.078125 0.780444
vt 0.462574 0.656428
vt 0.078125 0.777344
vt 0.462574 0.653328
vt 0.462574 0.656428
vt 0.078125 0.777344
vt 0.078125 0.780444
vt 0.078125 0.777344
vt 0.078125 0.777344
vt 0.189739 0.795946
vt 0.189739 0.799047
vn -0.2114 0.9753 -0.0646
vn -0.2074 0.9746 0.0846
vn -0.0838 0.9953 -0.0478
vn 0.6549 -0.0069 -0.7557
vn 0.6546 -0.0066 -0.7559
vn 0.6599 -0.0133 -0.7512
vn 0.9683 0.0202 0.2488
vn 0.9684 0.0204 0.2486
vn 0.9632 0.0000 0.2690
vn 0.0000 -0.0000 1.0000
vn 0.6543 -0.1252 -0.7458
vn 0.6497 -0.1343 -0.7483
vn 0.6601 -0.1135 -0.7426
vn -0.9522 0.0020 0.3054
vn -0.9522 0.0021 0.3055
vn -0.9516 0.0041 0.3072
vn -0.7184 -0.0072 -0.6956
vn -0.7197 -0.0089 -0.6942
vn -0.7252 -0.0161 -0.6884
vn 0.9673 0.0433 0.2498
vn 0.9652 0.0241 0.2604
vn 0.9631 0.0086 0.2689
vn 0.9560 0.0678 0.2853
vn 0.9640 0.0193 0.2653
vn 0.9514 0.0903 0.2944
vn -0.9621 0.0308 0.2708
vn -0.9558 -0.0119 0.2936
vn -0.9649 0.0580 0.2560
vn 0.0000 0.1592 0.9873
vn 0.6542 -0.0537 -0.7544
vn 0.6565 -0.0599 -0.7519
vn 0.6584 -0.0650 -0.7499
vn -0.8615 -0.4655 0.2026
vn -0.9779 -0.0390 0.2053
vn -0.9828 0.0006 0.1845
vn -0.9701 -0.0833 0.2281
vn -0.7682 0.1101 -0.6307
vn -0.9848 0.0314 0.1708
vn -0.9788 0.0725 0.1915
vn -0.9745 0.0954 0.2029
vn 0.0621 -0.0337 0.9975
vn 0.0476 -0.0599 0.9971
vn 0.0308 -0.0902 0.9954
vn 0.6492 -0.0175 -0.7604
vn 0.6491 -0.0218 -0.7604
vn 0.8426 -0.5016 0.1961
vn 0.8314 -0.5231 0.1873
vn 0.8460 -0.4946 0.1990
vn -0.6486 -0.5439 -0.5325
vn 0.0063 -0.5795 0.8149
vn 0.0195 -0.5481 0.8362
vn 0.0234 -0.5384 0.8424
vn 0.5475 -0.5375 -0.6413
vn -0.7720 0.0475 -0.6338
vn -0.7399 -0.1037 -0.6647
vn -0.7318 -0.0796 -0.6768
vn -0.7484 -0.1312 -0.6502
vn 0.0346 0.0003 0.9994
vn 0.0448 0.0160 0.9989
vn 0.0675 0.0514 0.9964
vn 0.6359 0.0231 -0.7714
vn 0.6279 0.0083 -0.7783
vn 0.6486 0.0471 -0.7597
vn 0.1042 -0.0343 0.9940
vn 0.0623 0.0175 0.9979
vn 0.1584 -0.1018 0.9821
vn -0.9433 -0.2901 0.1614
vn -0.9632 -0.1035 0.2482
vn -0.9529 0.0279 0.3020
vn 0.9623 0.0166 0.2714
vn 0.9664 0.0487 0.2525
vn 0.9695 0.0897 0.2280
vn -0.7196 -0.0626 -0.6915
vn -0.7153 -0.0499 -0.6971
vn -0.7238 -0.0752 -0.6859
vn -0.0001 -1.0000 -0.0076
vn 0.0021 -1.0000 -0.0027
vn 0.0019 -1.0000 -0.0025
vn -0.9733 -0.0144 0.2289
vn 0.9733 -0.0156 0.2289
vn -0.7728 -0.0178 -0.6344
vn -0.7725 -0.0303 -0.6343
vn -0.7675 -0.0161 -0.6409
vn 0.0000 -0.0202 0.9998
vn 0.0079 -1.0000 0.0016
vn 0.0123 -0.9998 -0.0126
vn 0.0034 -1.0000 -0.0022
vn -0.0000 0.9647 0.2633
vn -0.3281 -0.9430 0.0550
vn -0.0339 -0.9994 0.0048
vn -0.0293 -0.9996 0.0040
vn -0.0165 -0.9999 0.0016
vn 0.0135 -0.9999 -0.0005
vn 0.0053 -0.9998 0.0165
vn 0.0254 -0.9996 -0.0139
vn 0.2378 0.9695 -0.0586
vn 0.0264 0.9994 -0.0228
vn 0.2410 0.9687 -0.0591
vn 0.0313 -0.9995 -0.0061
vn 0.1120 -0.9937 -0.0078
vn 0.1134 -0.9935 -0.0078
vn 0.0015 -0.9510 0.3091
vn 0.0001 -0.9373 0.3486
vn 0.0015 -0.9512 0.3085
vn 0.9973 0.0367 0.0637
vn 0.9882 0.1461 0.0457
vn 0.9830 0.1795 0.0400
vn -0.9001 0.4010 0.1702
vn -0.9064 0.3965 0.1457
vn -0.9152 0.3887 0.1061
vn -0.0000 -1.0000 0.0000
vn 0.8135 0.5545 0.1754
vn 0.8170 0.5525 0.1650
vn 0.8084 0.5571 0.1901
vn -0.3126 0.9473 -0.0698
vn -0.1066 0.9941 -0.0183
vn -0.1026 0.9946 -0.0173
vn -0.9959 0.0040 0.0909
vn -0.9957 0.0269 0.0885
vn -0.9958 -0.0000 0.0913
vn -0.0289 -0.9996 0.0024
vn 0.0063 -1.0000 0.0005
vn -0.0000 0.3076 0.9515
vn 0.9750 0.0884 0.2040
vn 0.9680 0.1788 0.1763
vn 0.9650 0.1999 0.1696
vn -0.9896 0.0441 0.1367
vn -0.9896 0.0437 0.1368
vn -0.9896 0.0442 0.1367
vn 0.6478 -0.0183 -0.7616
vn 0.6481 -0.0236 -0.7612
vn -0.7674 -0.0291 -0.6406
vn -0.7568 -0.0000 -0.6536
vn -0.7445 -0.0084 -0.6676
vn -0.7494 -0.0371 -0.6611
vn -0.7431 -0.0008 -0.6692
vn 0.6391 -0.0195 -0.7689
vn 0.6401 -0.0252 -0.7679
vn 0.6403 -0.0263 -0.7677
vn -0.9890 0.0219 0.1461
vn -0.9888 0.0432 0.1431
vn -0.9890 0.0204 0.1463
vn 0.9698 0.0647 0.2350
vn 0.9573 0.1950 0.2134
vn 0.9553 0.2066 0.2113
vn -0.0011 0.3309 0.9437
vn -0.0016 0.3282 0.9446
vn -0.0016 0.3278 0.9447
vn -0.9966 0.0027 0.0822
vn -0.9964 0.0282 0.0796
vn -0.9966 0.0008 0.0823
vn 0.9995 0.0246 0.0219
vn 0.9877 0.1561 0.0068
vn 0.9849 0.1729 0.0048
vn 0.0149 0.9994 -0.0312
vn -0.0214 0.9997 0.0145
vn 0.0154 0.9994 -0.0318
vn -0.0302 0.9992 -0.0278
vn -0.0061 1.0000 -0.0053
vn -0.0055 1.0000 -0.0047
vn -0.0409 0.9940 0.1013
vn 0.0339 0.9947 0.0971
vn 0.0352 0.9947 0.0971
vn 0.0056 -1.0000 0.0050
vn 0.0099 -0.9995 0.0298
vn 0.0084 0.9966 0.0825
vn -0.1109 0.9904 0.0824
vn 0.0101 0.9965 0.0825
vn -0.0018 0.9508 -0.3099
vn -0.0001 0.9315 -0.3637
vn -0.0000 0.9307 -0.3657
vn 0.3611 -0.9278 0.0935
vn 0.1133 -0.9932 0.0268
vn 0.3645 -0.9264 0.0944
vn -0.7680 0.0453 -0.6389
vn -0.7705 0.0590 -0.6347
vn -0.7713 0.0637 -0.6333
vn -0.7576 -0.0146 -0.6525
vn -0.7642 -0.0481 -0.6432
vn -0.7551 -0.0028 -0.6556
vn 0.9698 0.0240 0.2429
vn 0.9687 0.0460 0.2440
vn 0.9703 0.0271 0.2405
vn 0.9698 0.0389 0.2406
vn -0.9722 0.0663 0.2246
vn -0.9781 -0.0008 0.2079
vn -0.9789 -0.0164 0.2039
vn -0.9675 -0.0198 0.2520
vn -0.9711 0.0496 0.2334
vn -0.9659 -0.0366 0.2563
vn 0.0140 -0.0037 0.9999
vn 0.0263 0.0311 0.9992
vn 0.0307 0.0436 0.9986
vn 0.0021 0.0928 0.9957
vn 0.0072 0.1069 0.9942
vn 0.0092 0.1123 0.9936
vn 0.6403 0.1114 -0.7600
vn 0.6353 0.0793 -0.7682
vn 0.6415 0.1202 -0.7576
vn 0.6518 -0.0041 -0.7584
vn 0.6474 0.0158 -0.7620
vn 0.6461 0.0212 -0.7629
vn 0.9715 -0.0101 0.2368
vn 0.9651 0.0284 0.2602
vn 0.9768 -0.0606 0.2053
vn 0.6120 0.0896 -0.7858
vn 0.6118 0.0872 -0.7862
vn 0.6120 0.0898 -0.7857
vn 0.9561 0.0163 0.2927
vn 0.9548 0.0348 0.2951
vn 0.9562 0.0144 0.2925
vn 0.0765 -0.0209 0.9968
vn 0.0767 -0.0187 0.9969
vn 0.0767 -0.0184 0.9969
vn -0.9870 0.0092 0.1602
vn -0.9869 0.0219 0.1596
vn -0.9870 0.0079 0.1603
vn -0.7705 0.0789 -0.6326
vn 0.6130 0.1449 -0.7767
vn 0.6200 0.1728 -0.7653
vn 0.6090 0.1301 -0.7825
vn 0.6493 0.0000 -0.7605
vn 0.9727 0.0401 0.2287
vn 0.6420 -0.1491 -0.7520
vn -0.9528 -0.0000 0.3037
vn -0.7128 0.0000 -0.7014
vn 0.9686 0.0578 0.2417
vn 0.9669 -0.0045 0.2552
vn -0.9502 -0.0415 0.3090
vn 0.6522 -0.0486 -0.7565
vn -0.9858 0.0404 0.1632
vn -0.9874 0.0063 0.1580
vn 0.0756 -0.0092 0.9971
vn 0.8293 -0.5270 0.1857
vn 0.0000 -0.5944 0.8042
vn -0.7227 -0.0541 -0.6890
vn 0.0096 -0.0384 0.9992
vn 0.6144 -0.0156 -0.7888
vn 0.0000 0.0936 0.9956
vn -0.9120 -0.3964 0.1059
vn 0.9565 -0.0178 0.2910
vn -0.7104 -0.0362 -0.7029
vn 0.0000 -0.0203 0.9998
vn -0.3320 -0.9416 0.0557
vn 0.0226 0.9995 -0.0221
vn 0.0301 -0.9995 -0.0060
vn -0.0000 -0.9367 0.3500
vn 0.9976 0.0121 0.0677
vn -0.8889 0.4076 0.2090
vn 0.8219 0.5496 0.1500
vn -0.3157 0.9462 -0.0706
vn -0.9956 0.0333 0.0879
vn 0.9753 0.0679 0.2100
vn 0.6455 -0.0163 -0.7636
vn -0.7505 -0.0446 -0.6593
vn 0.6389 -0.0183 -0.7690
vn -0.9887 0.0450 0.1428
vn 0.9701 0.0535 0.2366
vn -0.0010 0.3313 0.9435
vn -0.9964 0.0314 0.0793
vn 0.9996 0.0127 0.0233
vn -0.0222 0.9996 0.0155
vn -0.0306 0.9991 -0.0282
vn -0.0420 0.9940 0.1014
vn 0.0050 -1.0000 0.0044
vn -0.1129 0.9902 0.0824
vn -0.0019 0.9510 -0.3091
vn 0.1091 -0.9937 0.0256
vn -0.7671 0.0406 -0.6403
vn -0.7663 -0.0600 -0.6397
vn 0.9644 0.0711 0.2546
vn 0.9697 0.0341 0.2420
vn -0.9700 0.0828 0.2286
vn -0.9712 0.0659 0.2289
vn 0.0094 -0.0170 0.9998
vn 0.0000 0.0871 0.9962
vn 0.6339 0.0709 -0.7702
vn 0.6530 -0.0096 -0.7573
vn 0.9531 0.0814 0.2915
vn 0.6118 0.0869 -0.7862
vn 0.9547 0.0368 0.2954
vn 0.0765 -0.0212 0.9968
vn -0.9869 0.0233 0.1595
vn 0.6238 0.1885 -0.7585
usemtl paleta
s off
f 22/1/1 21/2/1 25/3/1
f 23/4/2 22/1/2 25/3/2
f 23/4/3 25/3/3 24/5/3
s 1
f 1/6/4 4/7/5 3/8/6
f 3/8/7 6/9/8 5/10/9
f 6/11/10 7/12/10 5/13/10
f 4/7/11 21/14/12 22/15/13
f 7/16/14 10/17/15 9/18/16
f 10/17/17 1/6/18 9/18/19
f 5/10/20 66/19/21 3/8/22
f 65/20/23 84/21/24 82/22/25
f 7/16/26 78/23/27 72/24/28
f 5/13/29 72/25/29 74/26/29
f 3/8/30 68/27/31 1/6/32
f 15/28/33 19/29/33 14/30/33
f 87/31/34 15/28/35 14/30/36
f 69/32/37 88/33/37 77/34/37
f 77/34/38 86/35/39 71/36/40
f 71/37/41 84/38/42 75/39/43
f 17/40/44 26/41/45 16/42/44
f 12/43/46 18/44/47 17/40/48
f 15/28/49 16/42/49 20/45/49
f 14/46/50 18/47/51 13/48/52
f 12/43/53 16/42/53 11/49/53
f 80/50/54 15/28/54 89/51/54
f 9/18/55 68/27/56 78/23/57
f 87/52/58 13/48/59 85/53/60
f 80/50/61 12/43/62 11/49/63
f 8/54/64 23/55/65 24/56/66
f 8/57/67 25/58/68 10/17/69
f 4/7/70 23/59/71 6/9/72
f 2/60/73 25/58/74 21/14/75
f 33/61/76 40/62/77 41/63/78
f 20/45/79 29/64/79 19/29/79
f 17/40/80 28/65/80 27/66/80
f 20/45/81 26/41/82 30/67/83
f 19/68/84 28/69/84 18/47/84
f 35/70/85 32/71/86 34/72/87
f 29/73/88 37/74/88 28/69/88
f 42/75/89 55/76/90 43/77/91
f 34/72/87 43/78/92 35/70/93
f 31/79/94 52/80/95 32/81/86
f 48/82/96 60/83/97 63/84/98
f 32/81/99 57/85/100 40/86/101
f 42/87/102 58/88/103 59/89/104
f 45/90/105 36/91/106 50/92/107
f 29/64/108 39/93/109 38/94/110
f 33/95/76 42/96/111 34/97/87
f 28/65/112 36/91/113 27/66/114
f 49/98/115 64/99/116 50/92/117
f 44/100/118 39/93/119 30/67/120
f 35/70/93 55/101/121 53/102/122
f 37/74/123 48/103/123 49/104/123
f 37/105/124 50/92/125 36/91/126
f 38/94/127 47/106/128 48/82/129
f 27/66/130 46/107/131 26/41/45
f 30/67/83 46/107/132 44/100/133
f 54/108/134 51/109/135 53/102/136
f 62/110/137 51/109/138 56/111/139
f 63/112/140 55/101/141 59/113/142
f 61/114/143 57/115/144 64/116/145
f 63/117/146 58/118/147 61/119/148
f 53/102/149 60/120/150 54/108/151
f 52/121/152 64/116/153 57/115/154
f 46/107/155 62/122/156 56/123/157
f 46/107/158 54/124/159 44/100/160
f 44/100/161 60/83/162 47/106/163
f 31/79/94 53/125/164 51/126/165
f 45/90/166 64/99/167 62/122/168
f 48/103/169 61/127/170 49/104/171
f 41/128/172 57/85/173 58/129/174
f 77/34/175 70/130/176 69/32/177
f 70/130/178 78/23/179 68/27/180
f 75/131/181 67/132/182 76/133/183
f 67/132/182 74/134/184 76/133/183
f 71/36/185 79/135/186 77/34/187
f 79/135/188 72/24/189 78/23/190
f 75/39/191 73/136/192 71/37/193
f 76/137/194 72/25/195 73/136/196
f 65/20/197 70/130/198 67/132/199
f 70/130/200 66/19/201 67/132/202
f 83/138/203 13/139/204 12/43/205
f 81/140/206 83/141/207 80/142/208
f 82/143/209 85/144/210 83/141/211
f 86/145/212 85/146/213 84/147/214
f 86/148/215 89/149/216 87/150/217
f 81/140/218 89/149/218 88/151/218
f 69/32/219 82/22/220 81/152/221
f 1/6/4 2/60/222 4/7/5
f 3/8/7 4/7/223 6/9/8
f 6/11/10 8/54/10 7/12/10
f 4/7/11 2/60/224 21/14/12
f 7/16/14 8/57/225 10/17/15
f 10/17/17 2/60/226 1/6/18
f 5/10/20 74/134/227 66/19/21
f 65/20/23 75/131/228 84/21/24
f 7/16/26 9/18/229 78/23/27
f 5/13/29 7/12/29 72/25/29
f 3/8/30 66/19/230 68/27/31
f 15/28/33 20/45/33 19/29/33
f 87/31/34 89/51/231 15/28/35
f 69/32/37 81/152/37 88/33/37
f 77/34/38 88/33/232 86/35/39
f 71/37/41 86/153/233 84/38/42
f 17/40/44 27/66/130 26/41/45
f 12/43/46 13/139/234 18/44/47
f 15/28/49 11/49/49 16/42/49
f 14/46/50 19/68/235 18/47/51
f 12/43/53 17/40/53 16/42/53
f 80/50/54 11/49/54 15/28/54
f 9/18/55 1/6/236 68/27/56
f 87/52/58 14/46/237 13/48/59
f 80/50/61 83/138/238 12/43/62
f 8/54/64 6/11/239 23/55/65
f 8/57/67 24/154/240 25/58/68
f 4/7/70 22/15/241 23/59/71
f 2/60/73 10/17/242 25/58/74
f 33/61/76 32/71/86 40/62/77
f 20/45/79 30/67/79 29/64/79
f 17/40/80 18/44/80 28/65/80
f 20/45/81 16/42/81 26/41/82
f 19/68/84 29/73/243 28/69/84
f 31/155/94 32/71/86 35/70/85
f 32/71/86 33/61/76 34/72/87
f 29/73/88 38/156/88 37/74/88
f 42/75/89 59/157/244 55/76/90
f 34/72/87 42/158/111 43/78/92
f 31/79/94 51/126/165 52/80/95
f 48/82/96 47/106/245 60/83/97
f 32/81/99 52/80/246 57/85/100
f 42/87/102 41/159/247 58/88/103
f 45/90/105 27/66/248 36/91/106
f 29/64/108 30/67/249 39/93/109
f 33/95/76 41/160/78 42/96/111
f 28/65/112 37/105/250 36/91/113
f 49/98/115 61/161/251 64/99/116
f 44/100/118 47/106/252 39/93/119
f 35/70/93 43/78/92 55/101/121
f 37/74/123 38/156/123 48/103/123
f 37/105/124 49/98/253 50/92/125
f 38/94/127 39/93/128 47/106/128
f 27/66/130 45/90/254 46/107/131
f 30/67/83 26/41/82 46/107/132
f 54/108/134 56/111/255 51/109/135
f 62/110/137 52/121/256 51/109/138
f 63/112/140 60/120/257 55/101/141
f 61/114/143 58/162/258 57/115/144
f 63/117/146 59/163/259 58/118/147
f 53/102/149 55/101/260 60/120/150
f 52/121/152 62/110/261 64/116/153
f 46/107/155 45/90/262 62/122/156
f 46/107/158 56/123/263 54/124/159
f 44/100/161 54/124/264 60/83/162
f 31/79/94 35/164/265 53/125/164
f 45/90/166 50/92/266 64/99/167
f 48/103/169 63/165/267 61/127/170
f 41/128/172 40/86/268 57/85/173
f 77/34/175 79/135/269 70/130/176
f 70/130/178 79/135/270 78/23/179
f 75/131/181 65/20/271 67/132/182
f 67/132/182 66/19/272 74/134/184
f 71/36/185 73/166/273 79/135/186
f 79/135/188 73/166/274 72/24/189
f 75/39/191 76/137/275 73/136/192
f 76/137/194 74/26/276 72/25/195
f 65/20/197 69/32/277 70/130/198
f 70/130/200 68/27/278 66/19/201
f 83/138/203 85/167/279 13/139/204
f 81/140/206 82/143/280 83/141/207
f 82/143/209 84/168/281 85/144/210
f 86/145/212 87/169/282 85/146/213
f 86/148/215 88/151/283 89/149/216
f 81/140/218 80/142/218 89/149/218
f 69/32/219 65/20/284 82/22/220
