# Blender v2.92.0 OBJ File: 'astronauta_reloded_arms.blend'
# www.blender.org
mtllib astronauta_reloded_rightarm.mtl
o Astronauta_Cubo
v 0.233840 0.902582 -0.040711
v 0.238944 0.937960 -0.102795
v 0.240204 0.940975 -0.001516
v 0.279381 1.034750 -0.045469
v 0.265483 1.001482 -0.105050
v 0.266742 1.004497 -0.003772
v 0.243209 0.909124 -0.051373
v 0.254482 0.930973 -0.095819
v 0.255620 0.933696 -0.008900
v 0.294362 1.013853 -0.050637
v 0.278450 0.988341 -0.097856
v 0.279587 0.991064 -0.010937
v 0.206910 1.079478 -0.048843
v 0.185932 1.051030 -0.122020
v 0.185771 0.942905 -0.137288
v 0.202757 0.911871 -0.039887
v 0.197598 0.951135 0.027558
v 0.197630 1.045573 0.029327
v 0.583236 0.837739 -0.022138
v 0.582410 0.835763 -0.085219
v 0.565841 0.796104 -0.020660
v 0.565016 0.794128 -0.083740
v 0.556834 0.778272 -0.051484
v 0.710581 0.746626 -0.028630
v 0.702970 0.732168 -0.030734
v 0.623444 0.802535 -0.096804
v 0.595938 0.789718 -0.092138
v 0.614409 0.806619 -0.019334
v 0.593332 0.788996 -0.023810
v 0.578173 0.783149 -0.051621
v 0.583662 0.793787 -0.073262
v 0.584216 0.795112 -0.030940
v 0.603080 0.834141 -0.051262
v 0.595332 0.821720 -0.074254
v 0.595886 0.823045 -0.031932
v 0.438654 0.830730 -0.051335
v 0.393440 0.848252 -0.051472
v 0.428820 0.840499 -0.051505
v 0.406717 0.849632 -0.051557
v 0.403046 0.866869 -0.089345
v 0.447529 0.847931 -0.086327
v 0.414970 0.865627 -0.084095
v 0.436823 0.856009 -0.083058
v 0.448425 0.850074 -0.017897
v 0.404015 0.869189 -0.015281
v 0.437630 0.857942 -0.021353
v 0.415802 0.867620 -0.020464
v 0.437023 0.937493 -0.050845
v 0.478926 0.913181 -0.050756
v 0.445141 0.925849 -0.051007
v 0.464238 0.915417 -0.050974
v 0.466399 0.893096 -0.087931
v 0.423467 0.915754 -0.091081
v 0.452872 0.897192 -0.084706
v 0.433454 0.907109 -0.085692
v 0.424435 0.918074 -0.017017
v 0.467295 0.895240 -0.019501
v 0.434289 0.909109 -0.021845
v 0.453685 0.899137 -0.022614
v 0.699035 0.730050 -0.093532
v 0.708514 0.745927 -0.087097
v 0.646981 0.793776 -0.096804
v 0.630271 0.765716 -0.021603
v 0.630271 0.765716 -0.096804
v 0.646981 0.793776 -0.021603
v 0.600110 0.789227 -0.001032
v 0.628057 0.770600 -0.000069
v 0.611424 0.809613 0.001180
v 0.641633 0.793395 -0.000069
v 0.605965 0.790071 0.018152
v 0.625997 0.778142 0.018152
v 0.614270 0.804016 0.018152
v 0.634301 0.792087 0.018152
v 0.668933 0.778884 -0.093206
v 0.691591 0.765176 -0.092782
v 0.653822 0.753509 -0.025201
v 0.676669 0.740118 -0.025626
v 0.691591 0.765176 -0.025626
v 0.668933 0.778884 -0.025201
v 0.676669 0.740118 -0.092782
v 0.653822 0.753509 -0.093206
v 0.712895 0.723121 -0.059996
v 0.630271 0.765716 -0.059204
v 0.648697 0.795439 -0.060292
v 0.589966 0.789718 -0.059204
v 0.718590 0.741381 -0.055059
v 0.623444 0.812589 -0.059204
v 0.691591 0.765176 -0.059204
v 0.670650 0.780547 -0.060292
v 0.653822 0.753509 -0.059204
v 0.676669 0.740118 -0.059204
v 0.593958 0.854277 -0.050950
v 0.578469 0.840421 -0.020104
v 0.589592 0.857725 -0.050981
v 0.560534 0.798211 -0.018718
v 0.598983 0.824886 -0.026254
v 0.559758 0.796108 -0.085476
v 0.551293 0.779350 -0.051373
v 0.577796 0.838517 -0.086956
v 0.577437 0.776469 -0.051374
v 0.584185 0.789902 -0.078726
v 0.584800 0.791618 -0.025224
v 0.607909 0.838820 -0.051165
v 0.598511 0.823443 -0.079924
vt 0.000000 0.000000
vt 0.000000 0.000000
vt 0.000000 0.000000
vt 0.000000 0.000000
vt 0.000000 0.000000
vt 0.000000 0.000000
vt 0.078125 0.777344
vt 0.078125 0.777344
vt 0.078125 0.777344
vt 0.078125 0.777344
vt 0.078125 0.777344
vt 0.078125 0.777344
vt 0.199040 0.808348
vt 0.199040 0.808348
vt 0.199040 0.808348
vt 0.199040 0.808348
vt 0.199040 0.808348
vt 0.199040 0.808348
vt 0.078125 0.777344
vt 0.078125 0.777344
vt 0.078125 0.777344
vt 0.078125 0.777344
vt 0.078125 0.777344
vt 0.078125 0.777344
vt 0.078125 0.777344
vt 0.078125 0.777344
vt 0.078125 0.777344
vt 0.078125 0.777344
vt 0.078125 0.777344
vt 0.078125 0.777344
vt 0.199040 0.808348
vt 0.199040 0.808348
vt 0.199040 0.808348
vt 0.199040 0.808348
vt 0.199040 0.808348
vt 0.199040 0.808348
vt 0.078125 0.777344
vt 0.078125 0.777344
vt 0.078125 0.777344
vt 0.078125 0.777344
vt 0.078125 0.777344
vt 0.078125 0.777344
vt 0.078125 0.777344
vt 0.078125 0.777344
vt 0.078125 0.777344
vt 0.078125 0.777344
vt 0.078125 0.777344
vt 0.078125 0.777344
vt 0.078125 0.777344
vt 0.078125 0.777344
vt 0.078125 0.777344
vt 0.078125 0.777344
vt 0.078125 0.777344
vt 0.078125 0.777344
vt 0.078125 0.777344
vt 0.078125 0.777344
vt 0.078125 0.777344
vt 0.078125 0.777344
vt 0.078125 0.777344
vt 0.078125 0.777344
vt 0.078125 0.777344
vt 0.078125 0.777344
vt 0.078125 0.777344
vt 0.078125 0.777344
vt 0.078125 0.777344
vt 0.078125 0.777344
vt 0.078125 0.777344
vt 0.078125 0.777344
vt 0.078125 0.777344
vt 0.078125 0.777344
vt 0.078125 0.777344
vt 0.078125 0.777344
vt 0.078125 0.777344
vt 0.078125 0.777344
vt 0.078125 0.777344
vt 0.078125 0.777344
vt 0.417735 0.683268
vt 0.417735 0.683268
vt 0.417735 0.683268
vt 0.417735 0.683268
vt 0.417735 0.683268
vt 0.417735 0.683268
vt 0.417735 0.683268
vt 0.417735 0.683268
vt 0.417735 0.683268
vt 0.417735 0.683268
vt 0.417735 0.683268
vt 0.417735 0.683268
vt 0.417735 0.683268
vt 0.417735 0.683268
vt 0.417735 0.683268
vt 0.417735 0.683268
vt 0.417735 0.683268
vt 0.417735 0.683268
vt 0.417735 0.683268
vt 0.417735 0.683268
vt 0.417735 0.683268
vt 0.417735 0.683268
vt 0.417735 0.683268
vt 0.417735 0.683268
vt 0.417735 0.683268
vt 0.417735 0.683268
vt 0.417735 0.683268
vt 0.417735 0.683268
vt 0.417735 0.683268
vt 0.417735 0.683268
vt 0.417735 0.683268
vt 0.417735 0.683268
vt 0.417735 0.683268
vt 0.417735 0.683268
vt 0.417735 0.683268
vt 0.417735 0.683268
vt 0.417735 0.683268
vt 0.417735 0.683268
vt 0.417735 0.683268
vt 0.417735 0.683268
vt 0.417735 0.683268
vt 0.417735 0.683268
vt 0.417735 0.683268
vt 0.417735 0.683268
vt 0.078125 0.777344
vt 0.078125 0.777344
vt 0.078125 0.777344
vt 0.078125 0.777344
vt 0.078125 0.777344
vt 0.078125 0.777344
vt 0.078125 0.777344
vt 0.078125 0.777344
vn -0.9861 -0.0218 0.1650
vn -0.9644 0.0379 0.2617
vn -0.9959 0.0200 -0.0878
vn -0.9932 0.0025 -0.1168
vn -0.1278 -0.8880 -0.4418
vn 0.0416 -0.9312 -0.3622
vn -0.2609 -0.8294 -0.4941
vn 0.5124 0.7210 -0.4666
vn 0.5039 0.7211 -0.4755
vn 0.5411 0.7198 -0.4349
vn 0.3795 -0.1260 0.9166
vn -0.1488 -0.8677 -0.4743
vn 0.0230 -0.8712 -0.4904
vn 0.0478 -0.8695 -0.4916
vn 0.4717 -0.0967 0.8764
vn 0.4605 -0.0775 0.8843
vn 0.4236 -0.0171 0.9057
vn 0.5315 0.7057 0.4685
vn 0.5016 0.7032 0.5039
vn 0.3932 0.6835 0.6151
vn -0.0573 -0.7677 0.6382
vn 0.0549 -0.8206 0.5689
vn 0.1425 -0.8506 0.5061
vn 0.3933 -0.0294 -0.9190
vn 0.3750 -0.0001 -0.9270
vn 0.5119 -0.2431 -0.8239
vn -0.2692 0.1476 0.9517
vn -0.2620 0.1435 0.9544
vn -0.2613 0.1431 0.9546
vn 0.8688 -0.3582 0.3420
vn 0.8611 -0.3479 0.3707
vn 0.8594 -0.3457 0.3768
vn 0.7418 0.4217 0.5214
vn 0.7465 0.4123 0.5223
vn 0.7488 0.4075 0.5227
vn 0.6045 -0.7356 0.3056
vn 0.1123 -0.7477 0.6545
vn -0.0020 -0.7142 0.6999
vn 0.3372 -0.1737 -0.9252
vn 0.7173 0.4927 -0.4927
vn 0.6676 0.5665 -0.4831
vn 0.7383 0.4572 -0.4958
vn -0.3557 -0.7999 -0.4834
vn 0.9762 -0.1033 0.1908
vn 0.9749 -0.1227 0.1857
vn 0.9745 -0.1280 0.1843
vn 0.1722 0.8665 0.4686
vn 0.1770 0.8648 0.4699
vn 0.1776 0.8646 0.4701
vn 0.3905 0.7281 0.5633
vn 0.3977 0.7445 -0.5362
vn -0.3292 -0.8117 -0.4825
vn 0.6898 -0.7085 -0.1492
vn 0.6914 -0.7071 -0.1484
vn 0.6918 -0.7067 -0.1482
vn 0.0239 -0.0455 -0.9987
vn -0.3151 -0.7787 0.5426
vn 0.0494 0.0148 0.9987
vn 0.0911 -0.9027 -0.4206
vn -0.3335 -0.8098 -0.4827
vn -0.6190 -0.6312 -0.4673
vn 0.0938 -0.8734 0.4779
vn -0.3218 -0.7757 0.5428
vn -0.6049 -0.5998 0.5238
vn 0.1371 0.8514 -0.5062
vn 0.4053 0.7402 -0.5365
vn 0.7041 0.4979 -0.5063
vn 0.1202 0.8410 0.5275
vn 0.3953 0.7254 0.5635
vn 0.6970 0.4785 0.5341
vn -0.2235 0.0503 -0.9734
vn -0.2400 0.0641 -0.9687
vn -0.2184 0.0461 -0.9748
vn 0.0253 -0.0498 -0.9984
vn 0.0254 -0.0498 -0.9984
vn 0.0253 -0.0497 -0.9984
vn 0.3490 -0.1802 -0.9196
vn 0.3702 -0.1974 -0.9077
vn 0.3445 -0.1767 -0.9220
vn -0.1980 0.1091 0.9741
vn -0.2141 0.1221 0.9691
vn -0.2183 0.1256 0.9678
vn 0.0462 0.0127 0.9989
vn 0.0462 0.0126 0.9989
vn 0.0463 0.0125 0.9989
vn 0.3559 -0.1174 0.9271
vn 0.3765 -0.1348 0.9166
vn 0.3828 -0.1402 0.9131
vn -0.3338 0.1107 -0.9361
vn -0.3108 0.0967 -0.9455
vn -0.3360 0.1120 -0.9352
vn 0.1633 0.0682 -0.9842
vn 0.1607 0.0818 -0.9836
vn 0.1106 0.3159 -0.9423
vn 0.8321 -0.4019 0.3821
vn 0.8224 -0.4391 0.3618
vn 0.8392 -0.3696 0.3989
vn 0.4379 0.8990 -0.0016
vn 0.4058 0.9124 0.0529
vn 0.3712 0.9222 0.1085
vn -0.3582 -0.9309 0.0710
vn -0.3610 -0.9296 0.0739
vn -0.2893 -0.9572 0.0000
vn 0.4787 0.8676 0.1344
vn 0.4530 0.8778 0.1556
vn 0.5626 0.8246 0.0604
vn 0.5630 0.8240 0.0641
vn 0.5645 0.8230 0.0628
vn 0.5601 0.8257 0.0665
vn -0.5238 -0.8517 0.0135
vn -0.5208 -0.8535 0.0178
vn -0.5114 -0.8588 0.0311
vn 0.1157 -0.0689 0.9909
vn -0.0869 -0.0161 -0.9961
vn -0.0806 -0.0149 -0.9966
vn -0.1542 -0.0286 -0.9876
vn 0.8209 -0.4889 0.2952
vn 0.8418 -0.5013 0.2002
vn -0.7782 0.6280 -0.0112
vn -0.7581 0.6516 0.0270
vn -0.8484 0.4920 -0.1953
vn -0.5453 -0.8257 0.1443
vn -0.5387 -0.8279 0.1563
vn -0.5328 -0.8296 0.1670
vn 0.0000 -0.0000 1.0000
vn -0.8426 0.4676 0.2674
vn -0.8434 0.4667 0.2661
vn -0.8200 0.4883 0.2985
vn 0.4862 0.8461 0.2183
vn 0.4768 0.8477 0.2326
vn 0.4661 0.8491 0.2485
vn -0.5201 -0.8237 0.2259
vn -0.5286 -0.8132 0.2433
vn -0.5023 -0.8435 0.1904
vn 0.1126 -0.1321 0.9848
vn 0.1093 -0.1136 0.9875
vn 0.1257 -0.2073 0.9702
vn 0.0138 -0.0082 0.9999
vn 0.6775 0.7351 0.0252
vn 0.6770 0.7355 0.0258
vn 0.6561 0.7530 0.0494
vn 0.5601 0.8275 0.0396
vn 0.5480 0.8360 0.0282
vn 0.5176 0.8556 0.0000
vn -0.4602 -0.8878 0.0000
vn -0.5057 -0.8627 0.0000
vn 0.1157 -0.0689 -0.9909
vn 0.0138 -0.0082 -0.9999
vn 0.5497 0.8344 -0.0404
vn 0.5611 0.8272 -0.0297
vn 0.5917 0.8061 -0.0000
vn 0.7108 0.7014 -0.0528
vn 0.7058 0.7060 -0.0590
vn 0.6666 0.7380 -0.1049
vn -0.5373 -0.8417 -0.0533
vn -0.5469 -0.8363 -0.0394
vn -0.5095 -0.8555 -0.0924
vn 0.5645 0.8228 -0.0668
vn 0.5632 0.8235 -0.0680
vn 0.5600 0.8255 -0.0709
vn 0.4367 0.8903 -0.1290
vn 0.4751 0.8652 -0.1604
vn 0.3482 0.9356 -0.0590
vn -0.4182 -0.9083 -0.0061
vn -0.4192 -0.9079 -0.0069
vn -0.4105 -0.9119 0.0000
vn 0.8716 -0.2965 -0.3904
vn 0.9035 -0.2446 -0.3519
vn 0.8445 -0.3347 -0.4182
vn -0.4259 0.2366 0.8733
vn -0.4317 0.2620 0.8631
vn -0.4432 0.3171 0.8385
vn 0.6381 0.6637 0.3903
vn 0.6270 0.6851 0.3708
vn 0.5454 0.8020 0.2437
vn 0.4599 0.8076 -0.3691
vn 0.4665 0.7941 -0.3896
vn 0.5063 0.6758 -0.5357
vn -0.5472 0.4004 -0.7350
vn -0.5585 0.3966 -0.7286
vn -0.3498 0.4520 -0.8206
vn 0.5309 -0.8419 0.0963
vn -0.7918 -0.4442 -0.4192
vn 0.3343 -0.9109 0.2419
vn -0.3580 -0.9279 0.1042
vn 0.5939 -0.7594 0.2658
vn 0.0334 0.0215 0.9992
vn 0.3841 0.7520 -0.5357
vn 0.3842 0.7520 -0.5357
vn 0.0048 -0.0375 -0.9993
vn 0.3775 0.7354 0.5627
vn -0.3400 -0.7675 0.5434
vn -0.0927 -0.8503 0.5181
vn -0.0931 -0.8503 0.5180
vn -0.0920 -0.8502 0.5184
vn 0.6051 0.5821 0.5432
vn 0.6048 0.5821 0.5434
vn 0.6059 0.5818 0.5425
vn 0.2318 -0.1330 -0.9636
vn 0.2315 -0.1325 -0.9638
vn 0.2323 -0.1336 -0.9634
vn 0.6112 0.5974 -0.5192
vn 0.6111 0.5974 -0.5193
vn 0.6110 0.5974 -0.5193
vn 0.2391 -0.0711 0.9684
vn 0.2386 -0.0702 0.9686
vn 0.2380 -0.0693 0.9688
vn -0.0977 -0.8835 -0.4582
vn -0.0976 -0.8835 -0.4582
vn -0.0974 -0.8835 -0.4583
vn 0.9710 -0.1432 -0.1915
vn 0.9699 -0.1210 -0.2114
vn 0.9694 -0.1148 -0.2168
vn -0.5699 -0.6321 0.5250
vn -0.5303 -0.6587 0.5338
vn -0.5733 -0.6297 0.5242
vn -0.5702 -0.6111 -0.5491
vn -0.5166 -0.6462 -0.5617
vn -0.5097 -0.6505 -0.5631
vn 0.8670 -0.3791 -0.3233
vn 0.8615 -0.3731 -0.3444
vn 0.8677 -0.3798 -0.3208
vn 0.1421 0.8391 -0.5250
vn 0.1509 0.8360 -0.5275
vn 0.1412 0.8394 -0.5248
vn 0.6848 -0.7117 0.1565
vn 0.6778 -0.7176 0.1598
vn 0.6856 -0.7110 0.1561
vn 0.1205 -0.9396 -0.3204
vn 0.4684 0.7204 -0.5115
vn -0.1778 -0.8645 -0.4701
vn 0.5224 -0.1887 0.8315
vn 0.6000 0.7055 0.3772
vn -0.1865 -0.6865 0.7028
vn 0.2856 0.1336 -0.9490
vn -0.2698 0.1480 0.9515
vn 0.8696 -0.3593 0.3387
vn 0.7385 0.4284 0.5207
vn 0.7000 -0.6875 0.1932
vn 0.6526 0.5865 -0.4797
vn 0.9763 -0.1005 0.1915
vn 0.1717 0.8666 0.4685
vn 0.6895 -0.7087 -0.1493
vn -0.2443 0.0677 -0.9673
vn 0.0254 -0.0499 -0.9984
vn 0.3768 -0.2027 -0.9038
vn -0.1931 0.1051 0.9755
vn 0.0461 0.0127 0.9989
vn 0.3517 -0.1139 0.9292
vn -0.3085 0.0953 -0.9464
vn 0.1950 -0.1161 -0.9739
vn 0.8108 -0.4763 0.3402
vn 0.4702 0.8805 -0.0601
vn -0.4184 -0.8981 0.1358
vn 0.3711 0.9024 0.2192
vn 0.5671 0.8214 0.0605
vn -0.5332 -0.8460 0.0000
vn -0.0000 0.0000 -1.0000
vn -0.6532 0.7338 0.1870
vn -0.5530 -0.8230 0.1298
vn -0.8592 0.4505 0.2424
vn 0.5020 0.8429 0.1938
vn -0.5406 -0.7972 0.2688
vn 0.0994 -0.0592 0.9933
vn 0.6988 0.7153 0.0000
vn 0.5881 0.8060 0.0670
vn 0.5173 0.8529 -0.0701
vn 0.7510 0.6603 0.0000
vn -0.5730 -0.8196 -0.0000
vn 0.5674 0.8209 -0.0641
vn 0.5420 0.8119 -0.2171
vn -0.4249 -0.9051 -0.0114
vn 0.9256 -0.2022 -0.3198
vn -0.4186 0.2063 0.8844
vn 0.7046 0.4698 0.5319
vn 0.4119 0.8803 -0.2354
vn -0.7685 0.3010 -0.5646
vn -0.5772 -0.8157 0.0382
vn -0.0937 -0.8504 0.5177
vn 0.6041 0.5824 0.5440
vn 0.2312 -0.1320 -0.9639
vn 0.6113 0.5973 -0.5192
vn 0.2399 -0.0723 0.9681
vn -0.0979 -0.8835 -0.4581
vn 0.9711 -0.1464 -0.1886
vn -0.5261 -0.6614 0.5346
vn -0.5754 -0.6074 -0.5477
vn 0.8603 -0.3718 -0.3487
vn 0.1521 0.8356 -0.5279
vn 0.6762 -0.7190 0.1606
usemtl paleta
s off
f 14/1/1 15/2/1 16/3/1
f 13/4/2 14/1/2 16/3/2
f 16/3/3 17/5/3 13/4/3
f 17/5/4 18/6/4 13/4/4
s 1
f 16/7/5 2/8/6 1/9/7
f 13/10/8 5/11/9 14/12/10
f 3/13/11 12/14/11 6/15/11
f 2/16/12 7/17/13 1/18/14
f 17/19/15 6/20/16 18/21/17
f 13/10/18 6/20/19 4/22/20
f 16/7/21 3/23/22 17/19/23
f 15/24/24 5/11/25 2/8/26
f 20/25/27 97/26/28 22/27/29
f 31/28/30 104/29/31 34/30/32
f 6/15/33 10/31/34 4/32/35
f 1/18/36 9/33/37 3/13/38
f 2/16/39 11/34/39 8/35/39
f 5/36/40 10/31/41 11/34/42
f 41/37/43 23/38/43 36/39/43
f 30/40/44 101/41/45 31/28/46
f 22/27/47 98/42/48 23/38/49
f 10/43/50 56/44/50 48/45/50
f 10/43/51 53/46/51 11/47/51
f 8/48/52 37/49/52 7/50/52
f 33/51/53 96/52/54 35/53/55
f 8/48/56 53/46/56 40/54/56
f 9/55/57 37/49/57 45/56/57
f 9/55/58 56/44/58 12/57/58
f 40/54/59 39/58/59 37/49/59
f 42/59/60 38/60/60 39/58/60
f 38/60/61 41/37/61 36/39/61
f 45/56/62 39/58/62 47/61/62
f 47/61/63 38/60/63 46/62/63
f 38/60/64 44/63/64 46/62/64
f 52/64/65 51/65/65 49/66/65
f 54/67/66 50/68/66 51/65/66
f 55/69/67 48/45/67 50/68/67
f 57/70/68 51/65/68 59/71/68
f 59/71/69 50/68/69 58/72/69
f 50/68/70 56/44/70 58/72/70
f 52/64/71 43/73/72 54/67/73
f 54/67/74 42/59/75 55/69/76
f 55/69/77 40/54/78 53/46/79
f 57/70/80 46/62/81 44/63/82
f 59/71/83 47/61/84 46/62/85
f 58/72/86 45/56/87 47/61/88
f 19/74/89 95/75/90 93/76/91
f 80/77/92 61/78/93 60/79/94
f 86/80/95 25/81/96 82/82/97
f 28/83/98 69/84/99 65/85/100
f 91/86/101 25/81/102 77/87/103
f 87/88/104 65/85/105 84/89/106
f 84/89/107 79/90/108 89/91/109
f 83/92/110 29/93/111 85/94/112
f 79/90/113 63/95/113 76/96/113
f 26/97/114 64/98/115 27/99/116
f 69/84/117 71/100/117 67/101/117
f 63/95/118 69/84/118 67/101/118
f 28/83/119 66/102/120 68/103/121
f 63/95/122 66/102/123 29/93/124
f 71/100/125 72/104/125 70/105/125
f 68/103/126 70/105/127 72/104/128
f 68/103/129 73/106/130 69/84/131
f 66/102/132 71/100/133 70/105/134
f 24/107/135 77/87/136 25/81/137
f 78/108/138 76/96/138 77/87/138
f 88/109/139 24/107/140 86/80/141
f 88/109/142 79/90/143 78/108/144
f 83/92/145 76/96/145 63/95/145
f 90/110/146 77/87/146 76/96/146
f 64/98/147 74/111/147 81/112/147
f 81/112/148 75/113/148 80/77/148
f 80/77/146 90/110/146 81/112/146
f 81/112/145 83/92/145 64/98/145
f 75/113/149 89/91/150 88/109/151
f 61/78/152 88/109/153 86/80/154
f 27/99/155 83/92/156 85/94/157
f 74/111/158 84/89/159 89/91/160
f 26/97/161 84/89/162 62/114/163
f 60/79/164 91/86/165 80/77/166
f 61/78/167 82/82/168 60/79/169
f 28/83/170 32/115/171 29/93/172
f 87/88/173 35/116/174 28/83/175
f 87/88/176 34/117/177 33/118/178
f 27/99/179 34/117/180 26/97/181
f 27/99/182 85/94/182 30/119/182
f 27/99/183 30/119/183 31/120/183
f 85/94/184 32/115/185 30/119/186
f 44/63/187 19/74/187 57/70/187
f 49/66/188 20/25/189 52/64/188
f 41/37/190 20/25/190 22/27/190
f 49/66/191 19/74/191 92/121/191
f 44/63/192 23/38/192 21/122/192
f 95/75/193 100/123/194 102/124/195
f 94/125/196 96/52/197 103/126/198
f 97/26/199 104/29/200 101/41/201
f 94/125/202 104/29/203 99/127/204
f 95/75/205 96/52/206 93/76/207
f 97/26/208 100/123/209 98/42/210
f 32/128/211 100/123/212 30/40/213
f 20/25/214 94/125/215 99/127/216
f 19/74/217 94/125/218 92/121/219
f 32/128/220 96/52/221 102/124/222
f 21/122/223 98/42/224 95/75/225
f 33/51/226 104/29/227 103/126/228
f 16/7/5 15/24/229 2/8/6
f 13/10/8 4/22/230 5/11/9
f 3/13/11 9/33/11 12/14/11
f 2/16/12 8/35/231 7/17/13
f 17/19/15 3/23/232 6/20/16
f 13/10/18 18/21/233 6/20/19
f 16/7/21 1/9/234 3/23/22
f 15/24/24 14/12/235 5/11/25
f 20/25/27 99/127/236 97/26/28
f 31/28/30 101/41/237 104/29/31
f 6/15/33 12/14/238 10/31/34
f 1/18/36 7/17/239 9/33/37
f 2/16/39 5/36/39 11/34/39
f 5/36/40 4/32/240 10/31/41
f 41/37/43 22/27/43 23/38/43
f 30/40/44 100/123/241 101/41/45
f 22/27/47 97/26/242 98/42/48
f 10/43/50 12/57/50 56/44/50
f 10/43/51 48/45/51 53/46/51
f 8/48/52 40/54/52 37/49/52
f 33/51/53 103/126/243 96/52/54
f 8/48/56 11/47/56 53/46/56
f 9/55/57 7/50/57 37/49/57
f 9/55/58 45/56/58 56/44/58
f 40/54/59 42/59/59 39/58/59
f 42/59/60 43/73/60 38/60/60
f 38/60/61 43/73/61 41/37/61
f 45/56/62 37/49/62 39/58/62
f 47/61/63 39/58/63 38/60/63
f 38/60/64 36/39/64 44/63/64
f 52/64/65 54/67/65 51/65/65
f 54/67/66 55/69/66 50/68/66
f 55/69/67 53/46/67 48/45/67
f 57/70/68 49/66/68 51/65/68
f 59/71/69 51/65/69 50/68/69
f 50/68/70 48/45/70 56/44/70
f 52/64/71 41/37/244 43/73/72
f 54/67/74 43/73/245 42/59/75
f 55/69/77 42/59/246 40/54/78
f 57/70/80 59/71/247 46/62/81
f 59/71/83 58/72/248 47/61/84
f 58/72/86 56/44/249 45/56/87
f 19/74/89 21/122/250 95/75/90
f 80/77/92 75/113/251 61/78/93
f 86/80/95 24/107/252 25/81/96
f 28/83/98 68/103/253 69/84/99
f 91/86/101 82/82/254 25/81/102
f 87/88/104 28/83/255 65/85/105
f 84/89/107 65/85/256 79/90/108
f 83/92/110 63/95/257 29/93/111
f 79/90/113 65/85/113 63/95/113
f 26/97/114 62/114/258 64/98/115
f 69/84/117 73/106/117 71/100/117
f 63/95/118 65/85/118 69/84/118
f 28/83/119 29/93/259 66/102/120
f 63/95/122 67/101/260 66/102/123
f 71/100/125 73/106/125 72/104/125
f 68/103/126 66/102/261 70/105/127
f 68/103/129 72/104/262 73/106/130
f 66/102/132 67/101/263 71/100/133
f 24/107/135 78/108/264 77/87/136
f 78/108/138 79/90/138 76/96/138
f 88/109/139 78/108/265 24/107/140
f 88/109/142 89/91/266 79/90/143
f 83/92/145 90/110/145 76/96/145
f 90/110/146 91/86/146 77/87/146
f 64/98/147 62/114/147 74/111/147
f 81/112/148 74/111/148 75/113/148
f 80/77/146 91/86/146 90/110/146
f 81/112/145 90/110/145 83/92/145
f 75/113/149 74/111/267 89/91/150
f 61/78/152 75/113/268 88/109/153
f 27/99/155 64/98/269 83/92/156
f 74/111/158 62/114/270 84/89/159
f 26/97/161 87/88/271 84/89/162
f 60/79/164 82/82/272 91/86/165
f 61/78/167 86/80/273 82/82/168
f 28/83/170 35/116/274 32/115/171
f 87/88/173 33/118/275 35/116/174
f 87/88/176 26/97/276 34/117/177
f 27/99/179 31/120/277 34/117/180
f 85/94/184 29/93/278 32/115/185
f 44/63/187 21/122/187 19/74/187
f 49/66/188 92/121/189 20/25/189
f 41/37/190 52/64/190 20/25/190
f 49/66/191 57/70/191 19/74/191
f 44/63/192 36/39/192 23/38/192
f 95/75/193 98/42/279 100/123/194
f 94/125/196 93/76/280 96/52/197
f 97/26/199 99/127/281 104/29/200
f 94/125/202 103/126/282 104/29/203
f 95/75/205 102/124/283 96/52/206
f 97/26/208 101/41/284 100/123/209
f 32/128/211 102/124/285 100/123/212
f 20/25/214 92/121/286 94/125/215
f 19/74/217 93/76/287 94/125/218
f 32/128/220 35/53/288 96/52/221
f 21/122/223 23/38/289 98/42/224
f 33/51/226 34/30/290 104/29/227
