# Blender v2.92.0 OBJ File: 'astronauta_reloded_legs.blend'
# www.blender.org
mtllib astronauta_reloded_leftlegbot.mtl
o Astronauta_Cubo
v -0.071931 0.161172 -0.115943
v -0.161103 0.161172 -0.039815
v -0.135568 0.164110 0.082540
v -0.038396 0.161172 0.083362
v -0.009429 0.161172 -0.039815
v -0.073999 0.137792 -0.094582
v -0.145883 0.137792 -0.033215
v -0.122532 0.137792 0.066081
v -0.046966 0.137792 0.066081
v -0.023615 0.137792 -0.033214
v -0.074169 0.067704 -0.092828
v -0.144633 0.067704 -0.032672
v -0.121743 0.067704 0.064661
v -0.047670 0.067704 0.064661
v -0.024780 0.067704 -0.032672
v -0.075240 0.001242 -0.089607
v -0.145296 0.002202 -0.030714
v -0.121743 0.001241 0.064661
v -0.047670 0.001241 0.064661
v -0.024781 0.001242 -0.032672
v -0.137653 0.041091 0.074992
v -0.121743 0.039732 0.167151
v -0.047670 0.039732 0.167151
v -0.034570 0.034266 0.074159
v -0.144633 0.001242 0.082261
v -0.121743 0.001241 0.179594
v -0.047670 0.001242 0.179594
v -0.034090 0.001242 0.081217
v -0.024781 0.023538 -0.032672
v -0.145074 0.024176 -0.031371
v -0.074881 0.023538 -0.090687
v -0.034251 0.012320 0.078849
v -0.047670 0.014154 0.175420
v -0.121743 0.014154 0.175420
v -0.142291 0.014610 0.079822
v -0.075010 0.001146 -0.092735
v -0.148163 0.002296 -0.031987
v -0.021799 0.001222 -0.033652
v -0.021813 0.023517 -0.033693
v -0.030973 0.001334 0.081574
v -0.074633 0.023442 -0.093814
v -0.147725 0.001591 0.082667
v -0.123448 0.002164 0.182062
v -0.045849 0.002027 0.182027
v -0.031131 0.012398 0.079182
v -0.123827 0.015012 0.177604
v -0.147902 0.024260 -0.032728
v -0.045449 0.014835 0.177529
v -0.145395 0.014936 0.080157
v -0.158201 0.309480 -0.029665
v -0.155315 0.340045 -0.027260
v -0.072733 0.309154 -0.100035
v -0.072862 0.339953 -0.097092
v -0.039322 0.309235 0.086538
v -0.041611 0.339934 0.085128
v -0.128257 0.309335 0.083798
v -0.127661 0.339975 0.084323
v -0.015088 0.309128 -0.029827
v -0.015001 0.339893 -0.027773
v -0.072435 0.242222 -0.110482
v -0.072526 0.259766 -0.108405
v -0.165024 0.259677 -0.036432
v -0.165713 0.242216 -0.037826
v -0.129222 0.259702 0.079270
v -0.130015 0.242231 0.078887
v -0.033297 0.247918 0.086431
v -0.033098 0.230300 0.086072
v -0.013670 0.259777 -0.036715
v -0.013028 0.242219 -0.038124
vt 0.000000 0.000000
vt 0.000000 0.000000
vt 0.000000 0.000000
vt 0.000000 0.000000
vt 0.000000 0.000000
vt 0.078125 0.777344
vt 0.078125 0.777344
vt 0.078125 0.777344
vt 0.078125 0.777344
vt 0.078125 0.777344
vt 0.078125 0.777344
vt 0.078125 0.777344
vt 0.078125 0.777344
vt 0.078125 0.777344
vt 0.078125 0.777344
vt 0.078125 0.777344
vt 0.078125 0.777344
vt 0.078125 0.777344
vt 0.078125 0.780444
vt 0.078125 0.780444
vt 0.078125 0.780444
vt 0.078125 0.777344
vt 0.078125 0.777344
vt 0.078125 0.777344
vt 0.078125 0.777344
vt 0.078125 0.777344
vt 0.078125 0.777344
vt 0.078125 0.777344
vt 0.078125 0.780444
vt 0.078125 0.780444
vt 0.078125 0.780444
vt 0.078125 0.777344
vt 0.078125 0.780444
vt 0.078125 0.780444
vt 0.078125 0.777344
vt 0.462574 0.653328
vt 0.462574 0.653328
vt 0.462574 0.653328
vt 0.078125 0.777344
vt 0.078125 0.777344
vt 0.078125 0.777344
vt 0.078125 0.780444
vt 0.078125 0.780444
vt 0.462574 0.653328
vt 0.462574 0.653328
vt 0.078125 0.780444
vt 0.078125 0.780444
vt 0.078125 0.777344
vt 0.078125 0.777344
vt 0.078125 0.777344
vt 0.462574 0.653328
vt 0.078125 0.777344
vt 0.078125 0.777344
vt 0.078125 0.777344
vt 0.078125 0.777344
vt 0.078125 0.777344
vt 0.078125 0.777344
vt 0.078125 0.777344
vt 0.078125 0.777344
vt 0.078125 0.780444
vt 0.078125 0.780444
vt 0.078125 0.780444
vt 0.078125 0.777344
vt 0.078125 0.777344
vt 0.078125 0.777344
vt 0.078125 0.777344
vt 0.078125 0.777344
vt 0.462574 0.656428
vt 0.462574 0.656428
vt 0.462574 0.656428
vt 0.078125 0.777344
vt 0.078125 0.777344
vt 0.078125 0.777344
vt 0.078125 0.777344
vt 0.462574 0.653328
vt 0.078125 0.780444
vt 0.078125 0.780444
vt 0.078125 0.777344
vt 0.078125 0.777344
vt 0.078125 0.777344
vt 0.462574 0.653328
vt 0.462574 0.653328
vt 0.462574 0.653328
vt 0.462574 0.653328
vt 0.462574 0.653328
vt 0.462574 0.653328
vt 0.462574 0.653328
vt 0.462574 0.653328
vt 0.462574 0.653328
vt 0.462574 0.656428
vt 0.462574 0.656428
vt 0.462574 0.656428
vt 0.462574 0.653328
vt 0.462574 0.653328
vt 0.078125 0.777344
vt 0.078125 0.777344
vt 0.078125 0.777344
vt 0.078125 0.777344
vt 0.078125 0.780444
vt 0.078125 0.780444
vt 0.078125 0.777344
vt 0.078125 0.777344
vt 0.078125 0.777344
vt 0.078125 0.777344
vt 0.078125 0.780444
vt 0.078125 0.777344
vt 0.189739 0.795946
vt 0.189739 0.795946
vt 0.189739 0.795946
vt 0.189739 0.795946
vt 0.189739 0.795946
vt 0.189739 0.799047
vt 0.189739 0.799047
vt 0.189739 0.799047
vt 0.189739 0.795946
vt 0.189739 0.795946
vt 0.189739 0.795946
vt 0.078125 0.777344
vt 0.078125 0.777344
vt 0.078125 0.780444
vt 0.462574 0.653328
vt 0.462574 0.653328
vt 0.078125 0.777344
vt 0.462574 0.653328
vt 0.078125 0.777344
vt 0.078125 0.777344
vt 0.078125 0.780444
vt 0.462574 0.656428
vt 0.078125 0.777344
vt 0.462574 0.653328
vt 0.462574 0.653328
vt 0.462574 0.656428
vt 0.078125 0.777344
vt 0.078125 0.780444
vt 0.078125 0.777344
vt 0.078125 0.777344
vt 0.078125 0.777344
vt 0.078125 0.780444
vt 0.189739 0.795946
vt 0.189739 0.799047
vt 0.189739 0.795946
vn 0.0011 1.0000 -0.0000
vn 0.0011 1.0000 0.0004
vn 0.0005 1.0000 -0.0003
vn -0.9560 0.0678 0.2853
vn -0.9640 0.0193 0.2653
vn -0.9669 -0.0045 0.2552
vn 0.8615 -0.4655 0.2026
vn 0.9779 -0.0390 0.2053
vn 0.9828 0.0006 0.1845
vn 0.9858 0.0404 0.1632
vn 0.7682 0.1101 -0.6307
vn 0.9788 0.0725 0.1915
vn 0.9848 0.0314 0.1708
vn 0.9745 0.0954 0.2029
vn -0.0476 -0.0599 0.9971
vn -0.0621 -0.0337 0.9975
vn -0.0308 -0.0902 0.9954
vn -0.6491 -0.0218 -0.7604
vn -0.6492 -0.0175 -0.7604
vn -0.8426 -0.5016 0.1961
vn -0.8314 -0.5231 0.1873
vn -0.8293 -0.5270 0.1857
vn 0.6486 -0.5439 -0.5325
vn -0.0195 -0.5481 0.8362
vn -0.0063 -0.5795 0.8149
vn -0.0234 -0.5384 0.8424
vn -0.5475 -0.5375 -0.6413
vn 0.7720 0.0475 -0.6338
vn -0.0448 0.0160 0.9989
vn -0.0346 0.0003 0.9994
vn -0.0676 0.0514 0.9964
vn -0.6359 0.0231 -0.7714
vn -0.6279 0.0083 -0.7783
vn -0.6144 -0.0156 -0.7888
vn -0.0037 -1.0000 -0.0031
vn -0.0021 -1.0000 -0.0027
vn -0.0042 -1.0000 -0.0035
vn 0.9733 -0.0144 0.2289
vn -0.9733 -0.0156 0.2289
vn 0.7728 -0.0178 -0.6344
vn 0.7725 -0.0303 -0.6343
vn -0.0000 -0.0203 0.9998
vn -0.0141 -0.9999 0.0028
vn -0.0027 -1.0000 -0.0040
vn -0.0000 0.9647 0.2633
vn 0.0338 -0.9994 0.0048
vn 0.3281 -0.9430 0.0550
vn 0.0293 -0.9996 0.0040
vn 0.0165 -0.9999 0.0016
vn -0.0254 -0.9996 -0.0139
vn -0.0099 -0.9995 0.0294
vn -0.0262 -0.9995 -0.0149
vn -0.2379 0.9695 -0.0586
vn -0.0264 0.9994 -0.0228
vn -0.0226 0.9995 -0.0221
vn -0.1120 -0.9937 -0.0078
vn -0.0313 -0.9995 -0.0061
vn -0.1134 -0.9935 -0.0078
vn -0.0015 -0.9510 0.3091
vn -0.0001 -0.9373 0.3486
vn 0.0000 -0.9367 0.3500
vn -0.9973 0.0367 0.0637
vn -0.9882 0.1461 0.0457
vn -0.9976 0.0121 0.0677
vn 0.9001 0.4010 0.1702
vn 0.9064 0.3965 0.1457
vn 0.8889 0.4076 0.2090
vn -0.0020 -1.0000 -0.0026
vn -0.8170 0.5525 0.1650
vn -0.8135 0.5545 0.1754
vn -0.8084 0.5571 0.1901
vn 0.1066 0.9941 -0.0183
vn 0.3126 0.9473 -0.0698
vn 0.1026 0.9946 -0.0173
vn 0.9957 0.0269 0.0885
vn 0.9959 0.0040 0.0909
vn 0.9958 -0.0000 0.0913
vn 0.0289 -0.9996 0.0024
vn -0.0000 0.3076 0.9515
vn -0.9680 0.1788 0.1763
vn -0.9750 0.0884 0.2040
vn -0.9650 0.1999 0.1696
vn 0.9896 0.0441 0.1367
vn 0.9896 0.0437 0.1368
vn -0.6481 -0.0236 -0.7612
vn -0.6478 -0.0183 -0.7616
vn 0.7675 -0.0161 -0.6409
vn 0.7674 -0.0291 -0.6406
vn 0.7445 -0.0084 -0.6676
vn 0.7494 -0.0371 -0.6611
vn 0.7505 -0.0446 -0.6593
vn -0.6401 -0.0252 -0.7679
vn -0.6391 -0.0195 -0.7689
vn -0.6403 -0.0263 -0.7677
vn 0.9890 0.0219 0.1461
vn 0.9888 0.0432 0.1431
vn 0.9887 0.0450 0.1428
vn -0.9573 0.1950 0.2134
vn -0.9698 0.0647 0.2350
vn -0.9553 0.2066 0.2113
vn 0.0016 0.3282 0.9446
vn 0.0011 0.3309 0.9437
vn 0.0016 0.3279 0.9447
vn 0.9964 0.0282 0.0796
vn 0.9966 0.0027 0.0822
vn 0.9966 0.0008 0.0824
vn -0.9995 0.0246 0.0219
vn -0.9877 0.1561 0.0068
vn -0.9996 0.0127 0.0233
vn -0.0149 0.9994 -0.0312
vn 0.0214 0.9997 0.0145
vn 0.0222 0.9996 0.0155
vn 0.0061 1.0000 -0.0053
vn 0.0302 0.9992 -0.0278
vn 0.0055 1.0000 -0.0047
vn -0.0339 0.9947 0.0971
vn 0.0409 0.9940 0.1013
vn -0.0352 0.9947 0.0971
vn -0.0056 -1.0000 0.0050
vn -0.0050 -1.0000 0.0044
vn -0.0084 0.9966 0.0825
vn 0.1109 0.9904 0.0824
vn 0.1129 0.9902 0.0824
vn 0.0001 0.9315 -0.3637
vn 0.0018 0.9508 -0.3099
vn 0.0000 0.9308 -0.3656
vn -0.3611 -0.9278 0.0935
vn -0.1133 -0.9932 0.0268
vn -0.1091 -0.9937 0.0256
vn 0.7705 0.0590 -0.6347
vn 0.7680 0.0453 -0.6389
vn 0.7713 0.0637 -0.6333
vn -0.9698 0.0240 0.2429
vn -0.9676 0.0561 0.2460
vn -0.9644 0.0711 0.2546
vn 0.9781 -0.0008 0.2079
vn 0.9722 0.0663 0.2246
vn 0.9789 -0.0164 0.2039
vn -0.0263 0.0311 0.9992
vn -0.0140 -0.0037 0.9999
vn -0.0307 0.0436 0.9986
vn -0.6403 0.1114 -0.7600
vn -0.6353 0.0792 -0.7682
vn -0.6339 0.0709 -0.7702
vn -0.9715 -0.0101 0.2368
vn -0.9651 0.0284 0.2602
vn -0.9531 0.0814 0.2915
vn -0.6120 0.0896 -0.7858
vn -0.6118 0.0872 -0.7862
vn -0.6118 0.0869 -0.7862
vn -0.9561 0.0163 0.2927
vn -0.9548 0.0348 0.2951
vn -0.9547 0.0368 0.2954
vn -0.0767 -0.0187 0.9969
vn -0.0765 -0.0209 0.9968
vn -0.0767 -0.0184 0.9969
vn 0.9870 0.0092 0.1602
vn 0.9869 0.0219 0.1596
vn 0.9869 0.0233 0.1595
vn 0.7705 0.0789 -0.6326
vn -0.6130 0.1449 -0.7767
vn -0.6200 0.1728 -0.7653
vn -0.6238 0.1885 -0.7585
vn -0.9514 0.0903 0.2944
vn 0.9701 -0.0833 0.2281
vn 0.9874 0.0063 0.1580
vn -0.0756 -0.0092 0.9971
vn -0.8460 -0.4946 0.1990
vn -0.0000 -0.5944 0.8042
vn -0.0096 -0.0384 0.9992
vn -0.6486 0.0471 -0.7597
vn -0.0000 -0.0202 0.9998
vn -0.0079 -0.9999 0.0070
vn 0.3320 -0.9416 0.0557
vn 0.0000 -1.0000 0.0000
vn -0.0099 -0.9995 0.0299
vn -0.2410 0.9687 -0.0591
vn -0.0302 -0.9995 -0.0060
vn -0.0015 -0.9512 0.3085
vn -0.9830 0.1795 0.0400
vn 0.9152 0.3887 0.1061
vn -0.8219 0.5496 0.1500
vn 0.3157 0.9462 -0.0706
vn 0.9956 0.0333 0.0879
vn -0.0063 -1.0000 0.0005
vn -0.9753 0.0679 0.2100
vn 0.9896 0.0442 0.1367
vn -0.6455 -0.0163 -0.7636
vn 0.7568 -0.0000 -0.6536
vn 0.7431 -0.0008 -0.6692
vn -0.6389 -0.0183 -0.7691
vn 0.9890 0.0204 0.1463
vn -0.9701 0.0535 0.2366
vn 0.0010 0.3313 0.9435
vn 0.9964 0.0314 0.0793
vn -0.9849 0.1729 0.0048
vn -0.0154 0.9994 -0.0318
vn 0.0306 0.9991 -0.0282
vn 0.0420 0.9940 0.1014
vn -0.0101 0.9965 0.0825
vn 0.0018 0.9510 -0.3091
vn -0.3645 -0.9264 0.0944
vn 0.7671 0.0406 -0.6403
vn -0.9714 0.0118 0.2373
vn 0.9700 0.0829 0.2286
vn -0.0094 -0.0170 0.9998
vn -0.6415 0.1202 -0.7576
vn -0.9768 -0.0606 0.2053
vn -0.6120 0.0898 -0.7857
vn -0.9562 0.0144 0.2925
vn -0.0765 -0.0212 0.9968
vn 0.9870 0.0079 0.1603
vn -0.6090 0.1301 -0.7825
usemtl paleta
s off
f 51/1/1 59/2/1 53/3/1
f 51/1/2 57/4/2 59/2/2
f 57/4/3 55/5/3 59/2/3
s 1
f 50/6/4 64/7/5 56/8/6
f 9/9/7 5/10/7 4/11/7
f 67/12/8 5/10/9 69/13/10
f 68/14/11 52/15/11 58/16/11
f 66/17/12 58/16/13 54/18/14
f 64/19/15 54/20/16 56/21/17
f 11/22/18 7/23/19 6/24/19
f 2/25/20 8/26/21 3/27/22
f 5/10/23 6/24/23 1/28/23
f 8/29/24 4/30/25 3/31/26
f 6/24/27 2/25/27 1/28/27
f 5/10/28 60/32/28 69/13/28
f 3/31/29 67/33/30 65/34/31
f 60/32/32 2/25/33 63/35/34
f 18/36/35 25/37/36 17/38/37
f 14/39/38 10/40/38 9/9/38
f 7/23/39 13/41/39 8/26/39
f 10/40/40 11/22/41 6/24/40
f 13/42/42 9/43/42 8/29/42
f 20/44/43 19/45/44 17/38/37
f 22/46/45 14/47/45 13/42/45
f 40/48/46 27/49/47 28/50/48
f 28/51/49 19/45/44 20/44/43
f 37/52/50 16/53/51 17/54/52
f 33/55/53 45/56/54 32/57/55
f 42/58/56 17/54/57 25/59/58
f 27/60/59 43/61/60 26/62/61
f 30/63/62 21/64/63 12/65/64
f 14/39/65 24/66/66 15/67/67
f 19/68/44 26/69/68 18/70/35
f 21/64/69 13/41/70 12/65/71
f 49/71/72 34/72/73 35/73/74
f 24/66/75 29/74/76 15/67/77
f 20/44/43 40/75/78 28/51/49
f 22/46/79 33/76/79 23/77/79
f 35/73/80 22/78/81 21/64/82
f 23/79/83 32/57/84 24/66/84
f 31/80/85 12/65/86 11/22/18
f 15/67/87 31/80/88 11/22/41
f 39/81/89 36/82/90 41/83/91
f 36/82/92 47/84/93 41/83/94
f 48/85/95 40/75/96 45/86/97
f 42/87/98 46/88/99 49/89/100
f 43/90/101 48/91/102 46/92/103
f 45/86/104 38/93/105 39/81/106
f 37/94/107 49/89/108 47/84/109
f 31/80/110 47/95/111 30/63/112
f 39/96/113 31/80/114 29/74/115
f 45/56/116 29/74/117 32/57/118
f 16/53/51 38/97/119 20/98/120
f 30/63/121 49/71/122 35/73/123
f 46/99/124 33/76/125 34/100/126
f 26/101/127 42/58/128 25/59/129
f 53/102/130 58/16/131 52/15/132
f 56/8/133 51/103/134 50/6/135
f 59/104/136 54/18/137 58/16/138
f 55/105/139 56/21/140 54/20/141
f 50/6/142 53/102/143 52/15/144
f 63/35/145 3/27/146 65/106/147
f 61/107/148 63/108/149 62/109/150
f 62/109/151 65/110/152 64/111/153
f 65/112/154 66/113/155 64/114/156
f 66/115/157 69/116/158 68/117/159
f 69/116/160 61/107/160 68/117/160
f 52/15/161 62/118/162 50/6/163
f 50/6/4 62/118/164 64/7/5
f 9/9/7 10/40/7 5/10/7
f 67/12/8 4/11/165 5/10/9
f 68/14/11 61/119/11 52/15/11
f 66/17/12 68/14/166 58/16/13
f 64/19/15 66/120/167 54/20/16
f 11/22/18 12/65/86 7/23/19
f 2/25/20 7/23/168 8/26/21
f 5/10/23 10/40/23 6/24/23
f 8/29/24 9/43/169 4/30/25
f 6/24/27 7/23/27 2/25/27
f 5/10/28 1/28/28 60/32/28
f 3/31/29 4/30/170 67/33/30
f 60/32/32 1/28/171 2/25/33
f 18/36/35 26/121/68 25/37/36
f 14/39/38 15/67/38 10/40/38
f 7/23/39 12/65/39 13/41/39
f 10/40/40 15/67/87 11/22/41
f 13/42/42 14/47/172 9/43/42
f 18/36/35 17/38/37 19/45/44
f 17/38/37 16/122/173 20/44/43
f 22/46/45 23/77/45 14/47/45
f 40/48/46 44/123/174 27/49/47
f 28/51/49 27/124/175 19/45/44
f 37/52/50 36/125/176 16/53/51
f 33/55/53 48/126/177 45/56/54
f 42/58/56 37/52/178 17/54/57
f 27/60/59 44/127/179 43/61/60
f 30/63/62 35/73/180 21/64/63
f 14/39/65 23/79/181 24/66/66
f 19/68/44 27/128/175 26/69/68
f 21/64/69 22/78/182 13/41/70
f 49/71/72 46/129/183 34/72/73
f 24/66/75 32/57/184 29/74/76
f 20/44/43 38/93/185 40/75/78
f 22/46/79 34/100/79 33/76/79
f 35/73/80 34/72/186 22/78/81
f 23/79/83 33/55/187 32/57/84
f 31/80/85 30/63/188 12/65/86
f 15/67/87 29/74/189 31/80/88
f 39/81/89 38/93/190 36/82/90
f 36/82/92 37/94/191 47/84/93
f 48/85/95 44/130/192 40/75/96
f 42/87/98 43/131/193 46/88/99
f 43/90/101 44/132/194 48/91/102
f 45/86/104 40/75/195 38/93/105
f 37/94/107 42/87/196 49/89/108
f 31/80/110 41/133/197 47/95/111
f 39/96/113 41/133/198 31/80/114
f 45/56/116 39/96/199 29/74/117
f 16/53/51 36/125/176 38/97/119
f 30/63/121 47/95/200 49/71/122
f 46/99/124 48/134/201 33/76/125
f 26/101/127 43/135/202 42/58/128
f 53/102/130 59/104/203 58/16/131
f 56/8/133 57/136/204 51/103/134
f 59/104/136 55/137/205 54/18/137
f 55/105/139 57/138/206 56/21/140
f 50/6/142 51/103/207 53/102/143
f 63/35/145 2/25/208 3/27/146
f 61/107/148 60/139/209 63/108/149
f 62/109/151 63/108/210 65/110/152
f 65/112/154 67/140/211 66/113/155
f 66/115/157 67/141/212 69/116/158
f 69/116/160 60/139/160 61/107/160
f 52/15/161 61/119/213 62/118/162
