# Blender v2.92.0 OBJ File: ''
# www.blender.org
mtllib astronauta_reloded_leftarmtop.mtl
o Astronauta_Cubo
v 0.960292 -0.037483 -0.083058
v 1.004409 -0.034778 -0.084706
v 0.962385 -0.037405 -0.021353
v 1.006516 -0.034700 -0.022614
v 1.025721 -0.037451 -0.050974
v 0.942855 -0.036724 -0.051505
v 1.032091 0.272072 -0.122020
v 0.933870 0.226865 -0.137288
v 0.912823 0.198428 -0.039887
v 1.066715 0.264961 -0.048843
v 0.946302 0.219581 0.027558
v 1.032044 0.259164 0.029327
v 0.951685 0.176521 -0.102795
v 0.917428 0.166315 -0.040711
v 1.020480 0.179074 -0.105050
v 0.954950 0.176642 -0.001516
v 1.016939 0.161901 -0.010937
v 1.023745 0.179196 -0.003772
v 0.927297 0.160554 -0.051373
v 1.056510 0.180412 -0.045469
v 1.043824 0.158048 -0.050637
v 0.954808 0.159595 -0.008900
v 1.013990 0.161791 -0.097856
v 0.951859 0.159486 -0.095819
v 1.011437 -0.000204 -0.017017
v 1.034345 -0.003486 -0.050845
v 1.008925 -0.000299 -0.091081
v 0.935053 -0.001355 -0.051472
v 0.955983 -0.002266 -0.089345
v 0.958495 -0.002172 -0.015281
v 0.941875 -0.012829 -0.051557
v 0.959857 -0.013611 -0.084095
v 0.962015 -0.013531 -0.020464
v 1.027180 -0.015740 -0.051007
v 1.005266 -0.012991 -0.085692
v 1.007432 -0.012910 -0.021845
vt 0.000000 0.000000
vt 0.000000 0.000000
vt 0.000000 0.000000
vt 0.000000 0.000000
vt 0.000000 0.000000
vt 0.000000 0.000000
vt 0.000000 0.000000
vt 0.000000 0.000000
vt 0.000000 0.000000
vt 0.000000 0.000000
vt 0.000000 0.000000
vt 0.000000 0.000000
vt 0.078125 0.777344
vt 0.078125 0.777344
vt 0.078125 0.777344
vt 0.078125 0.777344
vt 0.078125 0.777344
vt 0.078125 0.777344
vt 0.199040 0.808348
vt 0.199040 0.808348
vt 0.199040 0.808348
vt 0.199040 0.808348
vt 0.199040 0.808348
vt 0.199040 0.808348
vt 0.078125 0.777344
vt 0.078125 0.777344
vt 0.078125 0.777344
vt 0.078125 0.777344
vt 0.078125 0.777344
vt 0.078125 0.777344
vt 0.199040 0.808348
vt 0.199040 0.808348
vt 0.199040 0.808348
vt 0.199040 0.808348
vt 0.199040 0.808348
vt 0.199040 0.808348
vt 0.078125 0.777344
vt 0.078125 0.777344
vt 0.078125 0.777344
vt 0.078125 0.777344
vt 0.078125 0.777344
vt 0.078125 0.777344
vt 0.078125 0.777344
vt 0.078125 0.777344
vt 0.078125 0.777344
vt 0.078125 0.777344
vt 0.078125 0.777344
vt 0.078125 0.777344
vt 0.078125 0.777344
vt 0.078125 0.777344
vt 0.078125 0.777344
vt 0.078125 0.777344
vt 0.078125 0.777344
vt 0.078125 0.777344
vt 0.078125 0.777344
vt 0.078125 0.777344
vt 0.078125 0.777344
vt 0.078125 0.777344
vt 0.078125 0.777344
vt 0.078125 0.777344
vn 0.0612 -0.9981 -0.0008
vn -0.1334 -0.9910 0.0058
vn -0.0388 -0.9992 0.0026
vn -0.4334 0.8860 0.1650
vn -0.3701 0.8913 0.2617
vn -0.3996 0.9125 -0.0878
vn -0.4143 0.9026 -0.1168
vn -0.8597 -0.2565 -0.4418
vn -0.8278 -0.4283 -0.3622
vn -0.8623 -0.1110 -0.4941
vn 0.8694 -0.1627 -0.4666
vn 0.8660 -0.1550 -0.4755
vn 0.8803 -0.1893 -0.4349
vn 0.0448 -0.3974 0.9166
vn -0.8501 -0.2290 -0.4743
vn -0.7812 -0.3862 -0.4904
vn -0.7693 -0.4081 -0.4916
vn 0.1101 -0.4688 0.8764
vn 0.1228 -0.4505 0.8843
vn 0.1621 -0.3917 0.9057
vn 0.8636 -0.1864 0.4685
vn 0.8487 -0.1604 0.5039
vn 0.7853 -0.0702 0.6151
vn -0.7210 -0.2700 0.6382
vn -0.7219 -0.3940 0.5689
vn -0.7124 -0.4862 0.5061
vn 0.1383 -0.3693 -0.9190
vn 0.1572 -0.3405 -0.9270
vn -0.0060 -0.5666 -0.8239
vn 0.6940 -0.4965 0.5214
vn 0.6874 -0.5047 0.5223
vn 0.6841 -0.5088 0.5227
vn -0.4142 -0.8573 0.3056
vn -0.6317 -0.4156 0.6545
vn -0.6492 -0.2978 0.6999
vn -0.0163 -0.3790 -0.9252
vn 0.7481 -0.4445 -0.4927
vn 0.7943 -0.3683 -0.4831
vn 0.7247 -0.4785 -0.4958
vn 0.8248 -0.0491 0.5633
vn 0.8426 -0.0487 -0.5363
vn 0.8427 -0.0488 -0.5362
vn -0.8749 -0.0416 -0.4825
vn -0.0312 -0.0408 -0.9987
vn -0.8390 -0.0405 0.5426
vn 0.0342 -0.0386 0.9987
vn -0.7812 -0.4614 -0.4206
vn -0.8750 -0.0370 -0.4827
vn -0.7535 -0.4515 0.4779
vn -0.7535 -0.4516 0.4779
vn -0.8392 -0.0332 0.5428
vn 0.8419 -0.0574 -0.5365
vn 0.7473 -0.4304 -0.5062
vn 0.7473 -0.4303 -0.5063
vn 0.8243 -0.0546 0.5635
vn 0.7267 -0.4320 0.5341
vn -0.0345 -0.0439 -0.9984
vn -0.0346 -0.0440 -0.9984
vn -0.0345 -0.0438 -0.9984
vn -0.0172 -0.3924 -0.9196
vn -0.0239 -0.4189 -0.9077
vn -0.0159 -0.3869 -0.9220
vn 0.0308 -0.0367 0.9989
vn 0.0427 -0.3723 0.9271
vn 0.0355 -0.3983 0.9166
vn 0.0333 -0.4063 0.9131
vn -0.8024 -0.5035 -0.3204
vn 0.8504 -0.1231 -0.5115
vn -0.8594 -0.2013 -0.4701
vn 0.0478 -0.5534 0.8315
vn 0.8921 -0.2487 0.3772
vn -0.7209 -0.2700 0.6382
vn -0.7015 -0.1186 0.7028
vn 0.2411 -0.2033 -0.9490
vn 0.6986 -0.4907 0.5207
vn -0.3305 -0.9238 0.1932
vn 0.8061 -0.3464 -0.4797
vn -0.8750 -0.0369 -0.4827
vn -0.8392 -0.0333 0.5428
vn -0.0260 -0.4271 -0.9038
vn 0.0309 -0.0365 0.9989
vn 0.0441 -0.3670 0.9292
usemtl paleta
s off
f 1/1/1 2/2/1 3/3/1
f 2/2/1 4/4/1 3/3/1
f 5/5/2 4/4/2 2/2/2
f 3/3/3 6/6/3 1/1/3
f 7/7/4 8/8/4 9/9/4
f 10/10/5 7/7/5 9/9/5
f 9/9/6 11/11/6 10/10/6
f 11/11/7 12/12/7 10/10/7
s 1
f 9/13/8 13/14/9 14/15/10
f 10/16/11 15/17/12 7/18/13
f 16/19/14 17/20/14 18/21/14
f 13/22/15 19/23/16 14/24/17
f 11/25/18 18/26/19 12/27/20
f 10/16/21 18/26/22 20/28/23
f 9/13/24 16/29/25 11/25/26
f 8/30/27 15/17/28 13/14/29
f 18/21/30 21/31/31 20/32/32
f 14/24/33 22/33/34 16/19/35
f 13/22/36 23/34/36 24/35/36
f 15/36/37 21/31/38 23/34/39
f 21/37/40 25/38/40 26/39/40
f 21/37/41 27/40/42 23/41/41
f 24/42/43 28/43/43 19/44/43
f 24/42/44 27/40/44 29/45/44
f 22/46/45 28/43/45 30/47/45
f 22/46/46 25/38/46 17/48/46
f 29/45/47 31/49/47 28/43/47
f 32/50/48 6/51/48 31/49/48
f 30/47/49 31/49/49 33/52/50
f 33/52/51 6/51/51 3/53/51
f 2/54/52 34/55/52 5/56/52
f 35/57/53 26/39/54 34/55/54
f 4/58/55 34/55/55 36/59/55
f 34/55/56 25/38/56 36/59/56
f 2/54/57 32/50/58 35/57/59
f 35/57/60 29/45/61 27/40/62
f 4/58/63 33/52/63 3/53/63
f 36/59/64 30/47/65 33/52/66
f 9/13/8 8/30/67 13/14/9
f 10/16/11 20/28/68 15/17/12
f 16/19/14 22/33/14 17/20/14
f 13/22/15 24/35/69 19/23/16
f 11/25/18 16/29/70 18/26/19
f 10/16/21 12/27/71 18/26/22
f 9/13/72 14/15/73 16/29/25
f 8/30/27 7/18/74 15/17/28
f 18/21/30 17/20/75 21/31/31
f 14/24/33 19/23/76 22/33/34
f 13/22/36 15/36/36 23/34/36
f 15/36/37 20/32/77 21/31/38
f 21/37/40 17/48/40 25/38/40
f 21/37/41 26/39/42 27/40/42
f 24/42/43 29/45/43 28/43/43
f 24/42/44 23/41/44 27/40/44
f 22/46/45 19/44/45 28/43/45
f 22/46/46 30/47/46 25/38/46
f 29/45/47 32/50/47 31/49/47
f 32/50/78 1/60/78 6/51/78
f 30/47/49 28/43/49 31/49/49
f 33/52/51 31/49/79 6/51/51
f 2/54/52 35/57/52 34/55/52
f 35/57/53 27/40/53 26/39/54
f 4/58/55 5/56/55 34/55/55
f 34/55/56 26/39/56 25/38/56
f 2/54/57 1/60/58 32/50/58
f 35/57/60 32/50/80 29/45/61
f 4/58/81 36/59/81 33/52/81
f 36/59/64 25/38/82 30/47/65
