# Blender v2.92.0 OBJ File: 'astronauta_reloded_legs.blend'
# www.blender.org
mtllib astronauta_reloded_rightlegtop.mtl
o Astronauta_Cubo
v -0.073235 0.428905 -0.102194
v -0.073235 0.538353 -0.102194
v -0.154665 0.428270 -0.030646
v -0.151285 0.538353 -0.035562
v -0.125931 0.428905 0.072250
v -0.125931 0.538353 0.072250
v -0.043883 0.428905 0.072250
v -0.043883 0.538353 0.072250
v -0.009326 0.423524 -0.034739
v -0.009067 0.531520 -0.036987
v -0.075949 0.596786 -0.111462
v -0.155395 0.618458 -0.044157
v -0.121473 0.601657 0.066299
v -0.020829 0.593922 0.081725
v -0.009613 0.587114 -0.040400
v -0.154249 0.370741 -0.027310
v -0.155315 0.340045 -0.027260
v -0.072991 0.370755 -0.097370
v -0.072862 0.339953 -0.097092
v -0.042871 0.370608 0.081649
v -0.041611 0.339934 0.085128
v -0.127064 0.370648 0.081642
v -0.127661 0.339975 0.084323
v -0.013538 0.370573 -0.028900
v -0.015001 0.339893 -0.027773
vt 0.000000 0.000000
vt 0.000000 0.000000
vt 0.000000 0.000000
vt 0.000000 0.000000
vt 0.000000 0.000000
vt 0.000000 0.000000
vt 0.000000 0.000000
vt 0.000000 0.000000
vt 0.000000 0.000000
vt 0.000000 0.000000
vt 0.078125 0.777344
vt 0.078125 0.777344
vt 0.078125 0.777344
vt 0.078125 0.777344
vt 0.078125 0.777344
vt 0.078125 0.780444
vt 0.078125 0.780444
vt 0.078125 0.780444
vt 0.078125 0.777344
vt 0.078125 0.777344
vt 0.078125 0.777344
vt 0.078125 0.777344
vt 0.078125 0.777344
vt 0.078125 0.777344
vt 0.078125 0.777344
vt 0.078125 0.777344
vt 0.078125 0.780444
vt 0.078125 0.780444
vt 0.078125 0.777344
vt 0.078125 0.780444
vt 0.078125 0.777344
vt 0.078125 0.777344
vt 0.078125 0.777344
vt 0.078125 0.777344
vt 0.078125 0.777344
vt 0.078125 0.777344
vt 0.078125 0.777344
vt 0.078125 0.777344
vt 0.078125 0.777344
vt 0.078125 0.780444
vt 0.078125 0.780444
vt 0.078125 0.777344
vt 0.078125 0.780444
vt 0.078125 0.780444
vt 0.078125 0.777344
vn -0.0011 -1.0000 -0.0004
vn -0.0005 -1.0000 0.0003
vn -0.0011 -1.0000 0.0000
vn 0.2114 0.9753 -0.0646
vn 0.2074 0.9746 0.0846
vn 0.0838 0.9953 -0.0478
vn -0.6549 -0.0069 -0.7557
vn -0.6546 -0.0066 -0.7559
vn -0.6493 0.0000 -0.7605
vn -0.9683 0.0202 0.2488
vn -0.9684 0.0204 0.2486
vn -0.9727 0.0401 0.2287
vn 0.0000 -0.0000 1.0000
vn -0.6543 -0.1252 -0.7458
vn -0.6497 -0.1343 -0.7483
vn -0.6420 -0.1491 -0.7520
vn 0.9522 0.0020 0.3054
vn 0.9522 0.0021 0.3055
vn 0.9528 -0.0000 0.3037
vn 0.7197 -0.0089 -0.6942
vn 0.7184 -0.0072 -0.6956
vn 0.7252 -0.0161 -0.6884
vn -0.9652 0.0241 0.2604
vn -0.9673 0.0433 0.2498
vn -0.9631 0.0086 0.2689
vn 0.9621 0.0308 0.2708
vn 0.9558 -0.0119 0.2936
vn 0.9502 -0.0415 0.3090
vn -0.0000 0.1592 0.9873
vn -0.6565 -0.0599 -0.7519
vn -0.6542 -0.0537 -0.7544
vn -0.6584 -0.0650 -0.7499
vn 0.7399 -0.1037 -0.6647
vn 0.7318 -0.0796 -0.6768
vn 0.7227 -0.0541 -0.6890
vn -0.1042 -0.0343 0.9940
vn -0.0623 0.0175 0.9979
vn 0.0000 0.0936 0.9956
vn 0.9632 -0.1035 0.2482
vn 0.9433 -0.2901 0.1614
vn 0.9529 0.0279 0.3020
vn -0.9664 0.0487 0.2525
vn -0.9623 0.0166 0.2714
vn -0.9695 0.0897 0.2280
vn 0.7196 -0.0626 -0.6915
vn 0.7153 -0.0499 -0.6971
vn 0.7104 -0.0362 -0.7029
vn 0.7576 -0.0146 -0.6525
vn 0.7642 -0.0481 -0.6432
vn 0.7663 -0.0600 -0.6397
vn -0.9698 0.0389 0.2406
vn -0.9697 0.0350 0.2417
vn -0.9689 0.0430 0.2437
vn 0.9675 -0.0198 0.2520
vn 0.9711 0.0496 0.2334
vn 0.9712 0.0659 0.2289
vn -0.0072 0.1069 0.9942
vn -0.0021 0.0928 0.9957
vn -0.0092 0.1123 0.9936
vn -0.6474 0.0158 -0.7620
vn -0.6518 -0.0041 -0.7584
vn -0.6461 0.0212 -0.7629
vn -0.6599 -0.0133 -0.7512
vn -0.9632 -0.0000 0.2690
vn -0.6601 -0.1135 -0.7426
vn 0.9516 0.0041 0.3072
vn 0.7128 0.0000 -0.7014
vn -0.9686 0.0578 0.2417
vn 0.9649 0.0580 0.2560
vn -0.6522 -0.0486 -0.7565
vn 0.7484 -0.1312 -0.6502
vn -0.1584 -0.1018 0.9821
vn 0.9120 -0.3964 0.1059
vn -0.9565 -0.0178 0.2910
vn 0.7238 -0.0752 -0.6859
vn 0.7551 -0.0028 -0.6556
vn -0.9697 0.0341 0.2420
vn 0.9659 -0.0366 0.2563
vn -0.0000 0.0871 0.9962
vn -0.6530 -0.0096 -0.7573
usemtl paleta
s off
f 23/1/1 17/2/1 25/3/1
f 21/4/2 23/1/2 25/3/2
f 17/2/3 19/5/3 25/3/3
f 12/6/4 15/7/4 11/8/4
f 13/9/5 15/7/5 12/6/5
f 13/9/6 14/10/6 15/7/6
s 1
f 1/11/7 4/12/8 2/13/9
f 3/14/10 6/15/11 4/12/12
f 5/16/13 8/17/13 6/18/13
f 4/12/14 11/19/15 2/13/16
f 7/20/17 10/21/18 8/22/19
f 1/11/20 10/21/21 9/23/22
f 16/24/23 5/25/24 3/14/25
f 7/20/26 24/26/27 9/23/28
f 5/16/29 20/27/29 7/28/29
f 18/29/30 3/14/31 1/11/32
f 9/23/33 18/29/34 1/11/35
f 8/17/36 13/30/37 6/18/38
f 15/31/39 8/22/40 10/21/41
f 13/32/42 4/12/43 6/15/44
f 2/13/45 15/31/46 10/21/47
f 19/33/48 24/26/49 25/34/50
f 22/35/51 17/36/52 23/37/53
f 25/34/54 20/38/55 21/39/56
f 20/27/57 23/40/58 21/41/59
f 16/24/60 19/33/61 17/36/62
f 1/11/7 3/14/63 4/12/8
f 3/14/10 5/25/64 6/15/11
f 5/16/13 7/28/13 8/17/13
f 4/12/14 12/42/65 11/19/15
f 7/20/17 9/23/66 10/21/18
f 1/11/20 2/13/67 10/21/21
f 16/24/23 22/35/68 5/25/24
f 7/20/26 20/38/69 24/26/27
f 5/16/29 22/43/29 20/27/29
f 18/29/30 16/24/70 3/14/31
f 9/23/33 24/26/71 18/29/34
f 8/17/36 14/44/72 13/30/37
f 15/31/39 14/45/73 8/22/40
f 13/32/42 12/42/74 4/12/43
f 2/13/45 11/19/75 15/31/46
f 19/33/48 18/29/76 24/26/49
f 22/35/51 16/24/77 17/36/52
f 25/34/54 24/26/78 20/38/55
f 20/27/57 22/43/79 23/40/58
f 16/24/60 18/29/80 19/33/61
