# Blender v2.92.0 OBJ File: 'astronauta_reloded_legs.blend'
# www.blender.org
mtllib astronauta_reloded_leftlegbot.mtl
o Astronauta_Cubo
v 0.084423 0.161172 -0.115943
v 0.173595 0.161172 -0.039815
v 0.148060 0.164110 0.082540
v 0.050888 0.161172 0.083362
v 0.021921 0.161172 -0.039815
v 0.086491 0.137792 -0.094582
v 0.158375 0.137792 -0.033214
v 0.135024 0.137792 0.066081
v 0.059458 0.137792 0.066081
v 0.036107 0.137792 -0.033214
v 0.086661 0.067704 -0.092828
v 0.157125 0.067704 -0.032672
v 0.134235 0.067704 0.064661
v 0.060162 0.067704 0.064661
v 0.037273 0.067704 -0.032672
v 0.087732 0.001242 -0.089607
v 0.157788 0.002202 -0.030714
v 0.134235 0.001241 0.064661
v 0.060162 0.001241 0.064661
v 0.037273 0.001242 -0.032672
v 0.150145 0.041091 0.074992
v 0.134235 0.039732 0.167151
v 0.060162 0.039732 0.167151
v 0.047062 0.034266 0.074159
v 0.157125 0.001242 0.082261
v 0.134235 0.001241 0.179595
v 0.060162 0.001242 0.179595
v 0.046582 0.001241 0.081217
v 0.037273 0.023538 -0.032672
v 0.157566 0.024176 -0.031371
v 0.087373 0.023538 -0.090687
v 0.046743 0.012320 0.078849
v 0.060162 0.014154 0.175420
v 0.134235 0.014154 0.175420
v 0.154783 0.014610 0.079822
v 0.087502 0.001146 -0.092735
v 0.160655 0.002296 -0.031987
v 0.034291 0.001222 -0.033652
v 0.034305 0.023517 -0.033693
v 0.043465 0.001334 0.081574
v 0.087125 0.023442 -0.093814
v 0.160217 0.001591 0.082667
v 0.135940 0.002164 0.182062
v 0.058341 0.002027 0.182027
v 0.043623 0.012398 0.079182
v 0.136319 0.015012 0.177604
v 0.160394 0.024260 -0.032728
v 0.057940 0.014835 0.177529
v 0.157887 0.014936 0.080157
v 0.170694 0.309480 -0.029664
v 0.167807 0.340045 -0.027260
v 0.085225 0.309154 -0.100035
v 0.085354 0.339953 -0.097092
v 0.051813 0.309235 0.086538
v 0.054103 0.339934 0.085128
v 0.140749 0.309335 0.083798
v 0.140153 0.339975 0.084323
v 0.027580 0.309128 -0.029827
v 0.027493 0.339893 -0.027773
v 0.084927 0.242222 -0.110482
v 0.085019 0.259766 -0.108404
v 0.177516 0.259677 -0.036432
v 0.178205 0.242216 -0.037826
v 0.141714 0.259702 0.079271
v 0.142507 0.242231 0.078887
v 0.045789 0.247918 0.086431
v 0.045590 0.230300 0.086072
v 0.026162 0.259777 -0.036715
v 0.025520 0.242219 -0.038124
vt 0.000000 0.000000
vt 0.000000 0.000000
vt 0.000000 0.000000
vt 0.000000 0.000000
vt 0.000000 0.000000
vt 0.078125 0.777344
vt 0.078125 0.777344
vt 0.078125 0.777344
vt 0.078125 0.777344
vt 0.078125 0.777344
vt 0.078125 0.777344
vt 0.078125 0.777344
vt 0.078125 0.777344
vt 0.078125 0.777344
vt 0.078125 0.777344
vt 0.078125 0.777344
vt 0.078125 0.777344
vt 0.078125 0.780444
vt 0.078125 0.780444
vt 0.078125 0.780444
vt 0.078125 0.777344
vt 0.078125 0.777344
vt 0.078125 0.777344
vt 0.078125 0.777344
vt 0.078125 0.777344
vt 0.078125 0.777344
vt 0.078125 0.780444
vt 0.078125 0.780444
vt 0.078125 0.780444
vt 0.078125 0.777344
vt 0.078125 0.777344
vt 0.078125 0.777344
vt 0.078125 0.780444
vt 0.078125 0.780444
vt 0.462574 0.653328
vt 0.462574 0.653328
vt 0.462574 0.653328
vt 0.078125 0.777344
vt 0.078125 0.777344
vt 0.078125 0.777344
vt 0.078125 0.777344
vt 0.078125 0.780444
vt 0.078125 0.780444
vt 0.462574 0.653328
vt 0.462574 0.653328
vt 0.462574 0.653328
vt 0.078125 0.780444
vt 0.078125 0.780444
vt 0.078125 0.777344
vt 0.078125 0.777344
vt 0.078125 0.777344
vt 0.462574 0.653328
vt 0.078125 0.777344
vt 0.078125 0.777344
vt 0.078125 0.777344
vt 0.078125 0.777344
vt 0.078125 0.777344
vt 0.078125 0.777344
vt 0.078125 0.777344
vt 0.078125 0.777344
vt 0.078125 0.780444
vt 0.078125 0.780444
vt 0.078125 0.780444
vt 0.078125 0.777344
vt 0.078125 0.777344
vt 0.078125 0.777344
vt 0.078125 0.777344
vt 0.078125 0.777344
vt 0.462574 0.656428
vt 0.462574 0.656428
vt 0.462574 0.656428
vt 0.078125 0.777344
vt 0.078125 0.777344
vt 0.078125 0.777344
vt 0.462574 0.653328
vt 0.462574 0.653328
vt 0.078125 0.780444
vt 0.078125 0.780444
vt 0.078125 0.777344
vt 0.078125 0.777344
vt 0.078125 0.777344
vt 0.462574 0.653328
vt 0.462574 0.653328
vt 0.462574 0.653328
vt 0.462574 0.653328
vt 0.462574 0.653328
vt 0.462574 0.653328
vt 0.462574 0.653328
vt 0.462574 0.653328
vt 0.462574 0.653328
vt 0.462574 0.656428
vt 0.462574 0.656428
vt 0.462574 0.656428
vt 0.462574 0.653328
vt 0.462574 0.653328
vt 0.078125 0.777344
vt 0.078125 0.777344
vt 0.078125 0.777344
vt 0.078125 0.777344
vt 0.078125 0.777344
vt 0.078125 0.780444
vt 0.078125 0.777344
vt 0.078125 0.777344
vt 0.078125 0.777344
vt 0.078125 0.777344
vt 0.078125 0.777344
vt 0.078125 0.777344
vt 0.078125 0.777344
vt 0.078125 0.780444
vt 0.078125 0.777344
vt 0.078125 0.777344
vt 0.189739 0.795946
vt 0.189739 0.795946
vt 0.189739 0.795946
vt 0.189739 0.795946
vt 0.189739 0.795946
vt 0.189739 0.799047
vt 0.189739 0.799047
vt 0.189739 0.799047
vt 0.189739 0.795946
vt 0.189739 0.795946
vt 0.189739 0.795946
vt 0.189739 0.795946
vt 0.078125 0.777344
vt 0.078125 0.780444
vt 0.462574 0.653328
vt 0.078125 0.780444
vt 0.078125 0.777344
vt 0.462574 0.653328
vt 0.078125 0.780444
vt 0.462574 0.656428
vt 0.078125 0.777344
vt 0.462574 0.653328
vt 0.462574 0.656428
vt 0.078125 0.777344
vt 0.078125 0.780444
vt 0.078125 0.777344
vt 0.078125 0.780444
vt 0.078125 0.777344
vt 0.189739 0.795946
vt 0.189739 0.799047
vn -0.0005 1.0000 -0.0003
vn -0.0011 1.0000 -0.0000
vn -0.0011 1.0000 0.0004
vn 0.9560 0.0678 0.2853
vn 0.9640 0.0193 0.2653
vn 0.9514 0.0903 0.2944
vn -0.8615 -0.4655 0.2026
vn -0.9779 -0.0390 0.2053
vn -0.9828 0.0006 0.1845
vn -0.9701 -0.0833 0.2281
vn -0.7682 0.1101 -0.6307
vn -0.9848 0.0314 0.1708
vn -0.9788 0.0725 0.1915
vn -0.9745 0.0954 0.2029
vn 0.0621 -0.0337 0.9975
vn 0.0476 -0.0599 0.9971
vn 0.0308 -0.0902 0.9954
vn 0.6492 -0.0175 -0.7604
vn 0.6491 -0.0218 -0.7604
vn 0.8426 -0.5016 0.1961
vn 0.8314 -0.5231 0.1873
vn 0.8460 -0.4946 0.1990
vn -0.6486 -0.5439 -0.5325
vn 0.0063 -0.5795 0.8149
vn 0.0195 -0.5481 0.8362
vn 0.0234 -0.5384 0.8424
vn 0.5475 -0.5375 -0.6413
vn -0.7720 0.0475 -0.6338
vn 0.0346 0.0003 0.9994
vn 0.0448 0.0160 0.9989
vn 0.0675 0.0514 0.9964
vn 0.6359 0.0231 -0.7714
vn 0.6279 0.0083 -0.7783
vn 0.6486 0.0471 -0.7597
vn -0.0001 -1.0000 -0.0076
vn 0.0021 -1.0000 -0.0027
vn 0.0019 -1.0000 -0.0025
vn -0.9733 -0.0144 0.2289
vn 0.9733 -0.0156 0.2289
vn -0.7728 -0.0178 -0.6344
vn -0.7725 -0.0303 -0.6343
vn -0.7675 -0.0161 -0.6409
vn 0.0000 -0.0202 0.9998
vn 0.0079 -1.0000 0.0016
vn 0.0123 -0.9998 -0.0126
vn 0.0034 -1.0000 -0.0022
vn -0.0000 0.9647 0.2633
vn -0.3281 -0.9430 0.0550
vn -0.0339 -0.9994 0.0048
vn -0.0293 -0.9996 0.0040
vn -0.0165 -0.9999 0.0016
vn 0.0135 -0.9999 -0.0005
vn 0.0053 -0.9998 0.0165
vn 0.0254 -0.9996 -0.0139
vn 0.2378 0.9695 -0.0586
vn 0.0264 0.9994 -0.0228
vn 0.2410 0.9687 -0.0591
vn 0.0313 -0.9995 -0.0061
vn 0.1120 -0.9937 -0.0078
vn 0.1134 -0.9935 -0.0078
vn 0.0015 -0.9510 0.3091
vn 0.0001 -0.9373 0.3486
vn 0.0015 -0.9512 0.3085
vn 0.9973 0.0367 0.0637
vn 0.9882 0.1461 0.0457
vn 0.9830 0.1795 0.0400
vn -0.9001 0.4010 0.1702
vn -0.9064 0.3965 0.1457
vn -0.9152 0.3887 0.1061
vn -0.0000 -1.0000 0.0000
vn 0.8135 0.5545 0.1754
vn 0.8170 0.5525 0.1650
vn 0.8084 0.5571 0.1901
vn -0.3126 0.9473 -0.0698
vn -0.1066 0.9941 -0.0183
vn -0.1026 0.9946 -0.0173
vn -0.9959 0.0040 0.0909
vn -0.9957 0.0269 0.0885
vn -0.9958 -0.0000 0.0913
vn -0.0289 -0.9996 0.0024
vn 0.0063 -1.0000 0.0005
vn -0.0000 0.3076 0.9515
vn 0.9750 0.0884 0.2040
vn 0.9680 0.1788 0.1763
vn 0.9650 0.1999 0.1696
vn -0.9896 0.0441 0.1367
vn -0.9896 0.0437 0.1368
vn -0.9896 0.0442 0.1367
vn 0.6478 -0.0183 -0.7616
vn 0.6481 -0.0236 -0.7612
vn -0.7674 -0.0291 -0.6406
vn -0.7568 -0.0000 -0.6536
vn -0.7445 -0.0084 -0.6676
vn -0.7494 -0.0371 -0.6611
vn -0.7431 -0.0008 -0.6692
vn 0.6391 -0.0195 -0.7689
vn 0.6401 -0.0252 -0.7679
vn 0.6403 -0.0263 -0.7677
vn -0.9890 0.0219 0.1461
vn -0.9888 0.0432 0.1431
vn -0.9890 0.0204 0.1463
vn 0.9698 0.0647 0.2350
vn 0.9573 0.1950 0.2134
vn 0.9553 0.2066 0.2113
vn -0.0011 0.3309 0.9437
vn -0.0016 0.3282 0.9446
vn -0.0016 0.3278 0.9447
vn -0.9966 0.0027 0.0822
vn -0.9964 0.0282 0.0796
vn -0.9966 0.0008 0.0823
vn 0.9995 0.0246 0.0219
vn 0.9877 0.1561 0.0068
vn 0.9849 0.1729 0.0048
vn 0.0149 0.9994 -0.0312
vn -0.0214 0.9997 0.0145
vn 0.0154 0.9994 -0.0318
vn -0.0302 0.9992 -0.0278
vn -0.0061 1.0000 -0.0053
vn -0.0055 1.0000 -0.0047
vn -0.0409 0.9940 0.1013
vn 0.0339 0.9947 0.0971
vn 0.0352 0.9947 0.0971
vn 0.0056 -1.0000 0.0050
vn 0.0099 -0.9995 0.0298
vn 0.0084 0.9966 0.0825
vn -0.1109 0.9904 0.0824
vn 0.0101 0.9965 0.0825
vn -0.0018 0.9508 -0.3099
vn -0.0001 0.9315 -0.3637
vn -0.0000 0.9307 -0.3657
vn 0.3611 -0.9278 0.0935
vn 0.1133 -0.9932 0.0268
vn 0.3645 -0.9264 0.0944
vn -0.7680 0.0453 -0.6389
vn -0.7705 0.0590 -0.6347
vn -0.7713 0.0637 -0.6333
vn 0.9698 0.0240 0.2429
vn 0.9676 0.0561 0.2460
vn 0.9714 0.0118 0.2373
vn -0.9722 0.0663 0.2246
vn -0.9781 -0.0008 0.2079
vn -0.9789 -0.0164 0.2039
vn 0.0140 -0.0037 0.9999
vn 0.0263 0.0311 0.9992
vn 0.0307 0.0436 0.9986
vn 0.6403 0.1114 -0.7600
vn 0.6353 0.0793 -0.7682
vn 0.6415 0.1202 -0.7576
vn 0.9715 -0.0101 0.2368
vn 0.9651 0.0284 0.2602
vn 0.9768 -0.0606 0.2053
vn 0.6120 0.0896 -0.7858
vn 0.6118 0.0872 -0.7862
vn 0.6120 0.0898 -0.7857
vn 0.9561 0.0163 0.2927
vn 0.9548 0.0348 0.2951
vn 0.9562 0.0144 0.2925
vn 0.0765 -0.0209 0.9968
vn 0.0767 -0.0187 0.9969
vn 0.0767 -0.0184 0.9969
vn -0.9870 0.0092 0.1602
vn -0.9869 0.0219 0.1596
vn -0.9870 0.0079 0.1603
vn -0.7705 0.0789 -0.6326
vn 0.6130 0.1449 -0.7767
vn 0.6200 0.1728 -0.7653
vn 0.6090 0.1301 -0.7825
vn 0.9669 -0.0045 0.2552
vn -0.9858 0.0404 0.1632
vn -0.9874 0.0063 0.1580
vn 0.0756 -0.0092 0.9971
vn 0.8293 -0.5270 0.1857
vn 0.0000 -0.5944 0.8042
vn 0.0096 -0.0384 0.9992
vn 0.6144 -0.0156 -0.7888
vn 0.0000 -0.0203 0.9998
vn -0.3320 -0.9416 0.0557
vn 0.0226 0.9995 -0.0221
vn 0.0301 -0.9995 -0.0060
vn -0.0000 -0.9367 0.3500
vn 0.9976 0.0121 0.0677
vn -0.8889 0.4076 0.2090
vn 0.8219 0.5496 0.1500
vn -0.3157 0.9462 -0.0706
vn -0.9956 0.0333 0.0879
vn 0.9753 0.0679 0.2100
vn 0.6455 -0.0163 -0.7636
vn -0.7505 -0.0446 -0.6593
vn 0.6389 -0.0183 -0.7690
vn -0.9887 0.0450 0.1428
vn 0.9701 0.0535 0.2366
vn -0.0010 0.3313 0.9435
vn -0.9964 0.0314 0.0793
vn 0.9996 0.0127 0.0233
vn -0.0222 0.9996 0.0155
vn -0.0306 0.9991 -0.0282
vn -0.0420 0.9940 0.1014
vn 0.0050 -1.0000 0.0044
vn -0.1129 0.9902 0.0824
vn -0.0019 0.9510 -0.3091
vn 0.1091 -0.9937 0.0256
vn -0.7671 0.0406 -0.6403
vn 0.9644 0.0711 0.2546
vn -0.9700 0.0828 0.2286
vn 0.0094 -0.0170 0.9998
vn 0.6339 0.0709 -0.7702
vn 0.9531 0.0814 0.2915
vn 0.6118 0.0869 -0.7862
vn 0.9547 0.0368 0.2954
vn 0.0765 -0.0212 0.9968
vn -0.9869 0.0233 0.1595
vn 0.6238 0.1885 -0.7585
usemtl paleta
s off
f 55/1/1 57/2/1 59/3/1
f 51/4/2 53/5/2 59/3/2
f 57/2/3 51/4/3 59/3/3
s 1
f 50/6/4 64/7/5 62/8/6
f 5/9/7 9/10/7 4/11/7
f 67/12/8 5/9/9 4/11/10
f 52/13/11 68/14/11 58/15/11
f 58/15/12 66/16/13 54/17/14
f 54/18/15 64/19/16 56/20/17
f 7/21/18 11/22/19 6/23/18
f 2/24/20 8/25/21 7/21/22
f 5/9/23 6/23/23 10/26/23
f 4/27/24 8/28/25 3/29/26
f 2/24/27 6/23/27 1/30/27
f 60/31/28 5/9/28 69/32/28
f 67/33/29 3/29/30 65/34/31
f 60/31/32 2/24/33 1/30/34
f 18/35/35 25/36/36 26/37/37
f 10/26/38 14/38/38 9/10/38
f 7/21/39 13/39/39 12/40/39
f 10/26/40 11/22/41 15/41/42
f 9/42/43 13/43/43 8/28/43
f 20/44/44 17/45/45 19/46/46
f 14/47/47 22/48/47 13/43/47
f 27/49/48 40/50/49 28/51/50
f 19/46/46 28/52/51 20/44/52
f 16/53/53 37/54/54 17/55/45
f 33/56/55 45/57/56 48/58/57
f 17/55/58 42/59/59 25/60/60
f 27/61/61 43/62/62 44/63/63
f 30/64/64 21/65/65 35/66/66
f 14/38/67 24/67/68 23/68/69
f 18/69/35 27/70/70 19/71/46
f 13/39/71 21/65/72 12/40/73
f 34/72/74 49/73/75 35/66/76
f 29/74/77 24/67/78 15/41/79
f 20/44/52 40/75/80 38/76/81
f 22/48/82 33/77/82 34/78/82
f 22/79/83 35/66/84 21/65/85
f 23/68/86 32/80/87 33/56/88
f 12/40/89 31/81/90 11/22/19
f 15/41/42 31/81/91 29/74/92
f 39/82/93 36/83/94 38/76/95
f 47/84/96 36/83/97 41/85/98
f 48/86/99 40/75/100 44/87/101
f 46/88/102 42/89/103 49/90/104
f 48/91/105 43/92/106 46/93/107
f 38/76/108 45/94/109 39/82/110
f 37/95/111 49/90/112 42/89/113
f 31/81/114 47/96/115 41/97/116
f 31/81/117 39/98/118 29/74/119
f 29/74/120 45/57/121 32/80/122
f 16/53/53 38/99/123 36/100/124
f 30/64/125 49/73/126 47/96/127
f 33/77/128 46/101/129 34/78/130
f 26/102/131 42/59/132 43/103/133
f 58/15/134 53/104/135 52/13/136
f 56/105/137 51/106/138 57/107/139
f 54/17/140 59/108/141 58/15/142
f 56/20/143 55/109/144 54/18/145
f 50/6/146 53/104/147 51/106/148
f 63/110/149 3/111/150 2/24/151
f 61/112/152 63/113/153 60/114/154
f 62/115/155 65/116/156 63/113/157
f 66/117/158 65/118/159 64/119/160
f 66/120/161 69/121/162 67/122/163
f 61/112/164 69/121/164 68/123/164
f 52/13/165 62/8/166 61/124/167
f 50/6/4 56/105/168 64/7/5
f 5/9/7 10/26/7 9/10/7
f 67/12/8 69/32/169 5/9/9
f 52/13/11 61/124/11 68/14/11
f 58/15/12 68/14/170 66/16/13
f 54/18/15 66/125/171 64/19/16
f 7/21/18 12/40/89 11/22/19
f 2/24/20 3/111/172 8/25/21
f 5/9/23 1/30/23 6/23/23
f 4/27/24 9/42/173 8/28/25
f 2/24/27 7/21/27 6/23/27
f 60/31/28 1/30/28 5/9/28
f 67/33/29 4/27/174 3/29/30
f 60/31/32 63/110/175 2/24/33
f 18/35/35 17/45/45 25/36/36
f 10/26/38 15/41/38 14/38/38
f 7/21/39 8/25/39 13/39/39
f 10/26/40 6/23/40 11/22/41
f 9/42/43 14/47/176 13/43/43
f 16/126/53 17/45/45 20/44/44
f 17/45/45 18/35/35 19/46/46
f 14/47/47 23/127/47 22/48/47
f 27/49/48 44/128/177 40/50/49
f 19/46/46 27/129/70 28/52/51
f 16/53/53 36/100/124 37/54/54
f 33/56/55 32/80/178 45/57/56
f 17/55/58 37/54/179 42/59/59
f 27/61/61 26/130/180 43/62/62
f 30/64/64 12/40/181 21/65/65
f 14/38/67 15/41/182 24/67/68
f 18/69/35 26/131/37 27/70/70
f 13/39/71 22/79/183 21/65/72
f 34/72/74 46/132/184 49/73/75
f 29/74/77 32/80/185 24/67/78
f 20/44/52 28/52/51 40/75/80
f 22/48/82 23/127/82 33/77/82
f 22/79/83 34/72/186 35/66/84
f 23/68/86 24/67/87 32/80/87
f 12/40/89 30/64/187 31/81/90
f 15/41/42 11/22/41 31/81/91
f 39/82/93 41/85/188 36/83/94
f 47/84/96 37/95/189 36/83/97
f 48/86/99 45/94/190 40/75/100
f 46/88/102 43/133/191 42/89/103
f 48/91/105 44/134/192 43/92/106
f 38/76/108 40/75/193 45/94/109
f 37/95/111 47/84/194 49/90/112
f 31/81/114 30/64/195 47/96/115
f 31/81/117 41/97/196 39/98/118
f 29/74/120 39/98/197 45/57/121
f 16/53/53 20/135/198 38/99/123
f 30/64/125 35/66/199 49/73/126
f 33/77/128 48/136/200 46/101/129
f 26/102/131 25/60/201 42/59/132
f 58/15/134 59/108/202 53/104/135
f 56/105/137 50/6/203 51/106/138
f 54/17/140 55/137/204 59/108/141
f 56/20/143 57/138/205 55/109/144
f 50/6/146 52/13/206 53/104/147
f 63/110/149 65/139/207 3/111/150
f 61/112/152 62/115/208 63/113/153
f 62/115/155 64/140/209 65/116/156
f 66/117/158 67/141/210 65/118/159
f 66/120/161 68/123/211 69/121/162
f 61/112/164 60/114/164 69/121/164
f 52/13/165 50/6/212 62/8/166
