# Blender v2.92.0 OBJ File: 'astronauta_reloded_arms.blend'
# www.blender.org
mtllib astronauta_reloded_leftarm.mtl
o Astronauta_Cubo
v -0.221349 0.902582 -0.040711
v -0.226452 0.937960 -0.102795
v -0.227712 0.940975 -0.001517
v -0.266889 1.034750 -0.045469
v -0.252990 1.001482 -0.105051
v -0.254250 1.004497 -0.003772
v -0.230717 0.909124 -0.051373
v -0.241990 0.930973 -0.095820
v -0.243128 0.933695 -0.008900
v -0.281870 1.013853 -0.050637
v -0.265958 0.988341 -0.097857
v -0.267095 0.991064 -0.010938
v -0.194418 1.079478 -0.048843
v -0.173440 1.051030 -0.122020
v -0.173279 0.942905 -0.137288
v -0.190265 0.911871 -0.039887
v -0.185106 0.951135 0.027558
v -0.185138 1.045573 0.029327
v -0.570744 0.837739 -0.022139
v -0.569918 0.835763 -0.085219
v -0.553349 0.796104 -0.020660
v -0.552524 0.794128 -0.083741
v -0.544342 0.778272 -0.051484
v -0.698089 0.746626 -0.028631
v -0.690478 0.732168 -0.030734
v -0.610952 0.802535 -0.096804
v -0.583446 0.789718 -0.092139
v -0.601917 0.806619 -0.019335
v -0.580839 0.788996 -0.023811
v -0.565681 0.783148 -0.051621
v -0.571170 0.793787 -0.073262
v -0.571724 0.795112 -0.030941
v -0.590588 0.834141 -0.051263
v -0.582840 0.821720 -0.074254
v -0.583394 0.823045 -0.031933
v -0.426162 0.830730 -0.051335
v -0.380948 0.848252 -0.051472
v -0.416328 0.840499 -0.051505
v -0.394225 0.849632 -0.051557
v -0.390554 0.866869 -0.089345
v -0.435037 0.847931 -0.086328
v -0.402478 0.865627 -0.084096
v -0.424331 0.856009 -0.083058
v -0.435933 0.850074 -0.017897
v -0.391523 0.869189 -0.015282
v -0.425138 0.857942 -0.021353
v -0.403310 0.867620 -0.020464
v -0.424531 0.937493 -0.050845
v -0.466434 0.913181 -0.050756
v -0.432649 0.925849 -0.051007
v -0.451747 0.915417 -0.050975
v -0.453907 0.893096 -0.087932
v -0.410975 0.915754 -0.091081
v -0.440380 0.897192 -0.084707
v -0.420962 0.907109 -0.085692
v -0.411943 0.918074 -0.017017
v -0.454803 0.895240 -0.019501
v -0.421798 0.909109 -0.021846
v -0.441193 0.899137 -0.022615
v -0.686543 0.730050 -0.093532
v -0.696022 0.745927 -0.087098
v -0.634489 0.793776 -0.096805
v -0.617779 0.765716 -0.021604
v -0.617778 0.765716 -0.096804
v -0.634489 0.793776 -0.021604
v -0.587618 0.789227 -0.001033
v -0.615565 0.770600 -0.000069
v -0.598932 0.809613 0.001180
v -0.629141 0.793395 -0.000069
v -0.593473 0.790071 0.018152
v -0.613505 0.778141 0.018152
v -0.601778 0.804016 0.018152
v -0.621809 0.792087 0.018152
v -0.656441 0.778884 -0.093206
v -0.679099 0.765176 -0.092782
v -0.641330 0.753509 -0.025202
v -0.664177 0.740118 -0.025626
v -0.679099 0.765176 -0.025626
v -0.656441 0.778884 -0.025202
v -0.664177 0.740118 -0.092782
v -0.641330 0.753509 -0.093206
v -0.700403 0.723121 -0.059996
v -0.617779 0.765716 -0.059204
v -0.636205 0.795439 -0.060292
v -0.577474 0.789718 -0.059204
v -0.706098 0.741381 -0.055060
v -0.610952 0.812589 -0.059204
v -0.679099 0.765176 -0.059204
v -0.658158 0.780547 -0.060292
v -0.641330 0.753509 -0.059204
v -0.664177 0.740118 -0.059204
v -0.581466 0.854277 -0.050950
v -0.565977 0.840421 -0.020105
v -0.577100 0.857725 -0.050981
v -0.548041 0.798211 -0.018718
v -0.586491 0.824886 -0.026254
v -0.547266 0.796108 -0.085477
v -0.538801 0.779350 -0.051373
v -0.565304 0.838517 -0.086956
v -0.564945 0.776469 -0.051374
v -0.571693 0.789902 -0.078726
v -0.572308 0.791618 -0.025225
v -0.595417 0.838820 -0.051165
v -0.586019 0.823443 -0.079924
vt 0.000000 0.000000
vt 0.000000 0.000000
vt 0.000000 0.000000
vt 0.000000 0.000000
vt 0.000000 0.000000
vt 0.000000 0.000000
vt 0.078125 0.777344
vt 0.078125 0.777344
vt 0.078125 0.777344
vt 0.078125 0.777344
vt 0.078125 0.777344
vt 0.078125 0.777344
vt 0.199040 0.808348
vt 0.199040 0.808348
vt 0.199040 0.808348
vt 0.199040 0.808348
vt 0.199040 0.808348
vt 0.199040 0.808348
vt 0.078125 0.777344
vt 0.078125 0.777344
vt 0.078125 0.777344
vt 0.078125 0.777344
vt 0.078125 0.777344
vt 0.078125 0.777344
vt 0.078125 0.777344
vt 0.078125 0.777344
vt 0.078125 0.777344
vt 0.078125 0.777344
vt 0.199040 0.808348
vt 0.199040 0.808348
vt 0.199040 0.808348
vt 0.199040 0.808348
vt 0.199040 0.808348
vt 0.078125 0.777344
vt 0.078125 0.777344
vt 0.078125 0.777344
vt 0.078125 0.777344
vt 0.078125 0.777344
vt 0.078125 0.777344
vt 0.078125 0.777344
vt 0.078125 0.777344
vt 0.078125 0.777344
vt 0.078125 0.777344
vt 0.078125 0.777344
vt 0.078125 0.777344
vt 0.078125 0.777344
vt 0.078125 0.777344
vt 0.078125 0.777344
vt 0.078125 0.777344
vt 0.078125 0.777344
vt 0.078125 0.777344
vt 0.078125 0.777344
vt 0.078125 0.777344
vt 0.078125 0.777344
vt 0.078125 0.777344
vt 0.078125 0.777344
vt 0.078125 0.777344
vt 0.078125 0.777344
vt 0.078125 0.777344
vt 0.078125 0.777344
vt 0.078125 0.777344
vt 0.078125 0.777344
vt 0.078125 0.777344
vt 0.078125 0.777344
vt 0.078125 0.777344
vt 0.078125 0.777344
vt 0.078125 0.777344
vt 0.078125 0.777344
vt 0.078125 0.777344
vt 0.078125 0.777344
vt 0.078125 0.777344
vt 0.078125 0.777344
vt 0.078125 0.777344
vt 0.417735 0.683268
vt 0.417735 0.683268
vt 0.417735 0.683268
vt 0.417735 0.683268
vt 0.417735 0.683268
vt 0.417735 0.683268
vt 0.417735 0.683268
vt 0.417735 0.683268
vt 0.417735 0.683268
vt 0.417735 0.683268
vt 0.417735 0.683268
vt 0.417735 0.683268
vt 0.417735 0.683268
vt 0.417735 0.683268
vt 0.417735 0.683268
vt 0.417735 0.683268
vt 0.417735 0.683268
vt 0.417735 0.683268
vt 0.417735 0.683268
vt 0.417735 0.683268
vt 0.417735 0.683268
vt 0.417735 0.683268
vt 0.417735 0.683268
vt 0.417735 0.683268
vt 0.417735 0.683268
vt 0.417735 0.683268
vt 0.417735 0.683268
vt 0.417735 0.683268
vt 0.417735 0.683268
vt 0.417735 0.683268
vt 0.417735 0.683268
vt 0.417735 0.683268
vt 0.417735 0.683268
vt 0.417735 0.683268
vt 0.417735 0.683268
vt 0.417735 0.683268
vt 0.417735 0.683268
vt 0.417735 0.683268
vt 0.417735 0.683268
vt 0.417735 0.683268
vt 0.417735 0.683268
vt 0.417735 0.683268
vt 0.078125 0.777344
vt 0.078125 0.777344
vt 0.078125 0.777344
vt 0.078125 0.777344
vt 0.078125 0.777344
vt 0.078125 0.777344
vt 0.078125 0.777344
vt 0.078125 0.777344
vt 0.199040 0.808348
vt 0.078125 0.777344
vt 0.417735 0.683268
vt 0.417735 0.683268
vt 0.078125 0.777344
vn 0.9932 0.0025 -0.1168
vn 0.9959 0.0200 -0.0878
vn 0.9861 -0.0218 0.1650
vn 0.9644 0.0379 0.2617
vn 0.1278 -0.8880 -0.4418
vn -0.0416 -0.9312 -0.3622
vn -0.1205 -0.9396 -0.3204
vn -0.5039 0.7211 -0.4755
vn -0.5124 0.7210 -0.4666
vn -0.5411 0.7198 -0.4349
vn -0.3795 -0.1260 0.9166
vn -0.0230 -0.8712 -0.4904
vn 0.1488 -0.8677 -0.4743
vn -0.0478 -0.8695 -0.4916
vn -0.4605 -0.0775 0.8843
vn -0.4717 -0.0967 0.8764
vn -0.4236 -0.0171 0.9057
vn -0.5315 0.7057 0.4685
vn -0.5016 0.7032 0.5039
vn -0.6000 0.7055 0.3772
vn -0.0549 -0.8206 0.5688
vn 0.0573 -0.7677 0.6382
vn -0.1425 -0.8506 0.5061
vn -0.3933 -0.0294 -0.9190
vn -0.3750 -0.0001 -0.9270
vn -0.2856 0.1336 -0.9490
vn 0.2620 0.1435 0.9543
vn 0.2692 0.1476 0.9517
vn 0.2613 0.1431 0.9546
vn -0.8611 -0.3479 0.3707
vn -0.8688 -0.3582 0.3420
vn -0.8594 -0.3457 0.3768
vn -0.7465 0.4123 0.5223
vn -0.7418 0.4217 0.5214
vn -0.7488 0.4075 0.5227
vn -0.1123 -0.7477 0.6545
vn -0.6045 -0.7356 0.3056
vn 0.0020 -0.7142 0.6999
vn -0.3372 -0.1737 -0.9252
vn -0.3372 -0.1737 -0.9253
vn -0.7173 0.4927 -0.4927
vn -0.6676 0.5665 -0.4831
vn -0.6526 0.5865 -0.4797
vn 0.3557 -0.7999 -0.4834
vn -0.9749 -0.1227 0.1857
vn -0.9762 -0.1033 0.1908
vn -0.9745 -0.1280 0.1843
vn -0.1770 0.8648 0.4699
vn -0.1721 0.8665 0.4686
vn -0.1776 0.8646 0.4701
vn -0.3905 0.7281 0.5633
vn -0.3906 0.7281 0.5633
vn -0.3977 0.7445 -0.5362
vn 0.3292 -0.8117 -0.4825
vn -0.6914 -0.7071 -0.1484
vn -0.6898 -0.7085 -0.1492
vn -0.6918 -0.7067 -0.1482
vn -0.0239 -0.0455 -0.9987
vn 0.3151 -0.7787 0.5426
vn -0.0494 0.0148 0.9987
vn -0.0911 -0.9027 -0.4206
vn 0.3335 -0.8098 -0.4827
vn 0.6190 -0.6312 -0.4673
vn -0.0938 -0.8734 0.4779
vn 0.3218 -0.7757 0.5428
vn 0.6049 -0.5998 0.5238
vn -0.1371 0.8514 -0.5062
vn -0.4053 0.7402 -0.5365
vn -0.7041 0.4979 -0.5063
vn -0.1202 0.8410 0.5275
vn -0.3953 0.7254 0.5635
vn -0.6970 0.4785 0.5341
vn 0.2235 0.0503 -0.9734
vn 0.2400 0.0641 -0.9687
vn 0.2443 0.0677 -0.9673
vn -0.0253 -0.0498 -0.9984
vn -0.0254 -0.0498 -0.9984
vn -0.0254 -0.0499 -0.9984
vn -0.3490 -0.1802 -0.9196
vn -0.3702 -0.1973 -0.9077
vn -0.3768 -0.2027 -0.9038
vn 0.2141 0.1221 0.9691
vn 0.1980 0.1091 0.9741
vn 0.2183 0.1256 0.9678
vn -0.0462 0.0126 0.9989
vn -0.0462 0.0127 0.9989
vn -0.0463 0.0125 0.9989
vn -0.3765 -0.1348 0.9166
vn -0.3559 -0.1174 0.9271
vn -0.3828 -0.1402 0.9131
vn 0.3338 0.1107 -0.9361
vn 0.3108 0.0967 -0.9455
vn 0.3085 0.0953 -0.9464
vn -0.1633 0.0682 -0.9842
vn -0.1607 0.0818 -0.9836
vn -0.1950 -0.1161 -0.9739
vn -0.8224 -0.4391 0.3618
vn -0.8321 -0.4019 0.3821
vn -0.8392 -0.3696 0.3989
vn -0.4058 0.9124 0.0528
vn -0.4379 0.8990 -0.0016
vn -0.3712 0.9222 0.1085
vn 0.3582 -0.9309 0.0710
vn 0.3610 -0.9296 0.0739
vn 0.4184 -0.8981 0.1358
vn -0.4530 0.8778 0.1556
vn -0.4787 0.8676 0.1344
vn -0.5625 0.8246 0.0604
vn -0.5645 0.8230 0.0628
vn -0.5630 0.8240 0.0641
vn -0.5601 0.8257 0.0665
vn 0.5208 -0.8535 0.0178
vn 0.5238 -0.8517 0.0135
vn 0.5114 -0.8588 0.0311
vn -0.1157 -0.0689 0.9909
vn 0.0806 -0.0149 -0.9966
vn 0.0869 -0.0161 -0.9961
vn 0.1542 -0.0286 -0.9876
vn -0.8209 -0.4889 0.2952
vn -0.8418 -0.5013 0.2002
vn 0.7782 0.6280 -0.0112
vn 0.7581 0.6516 0.0270
vn 0.6532 0.7338 0.1870
vn 0.5387 -0.8279 0.1563
vn 0.5453 -0.8257 0.1443
vn 0.5328 -0.8296 0.1670
vn -0.0000 -0.0000 1.0000
vn 0.8426 0.4676 0.2674
vn 0.8434 0.4667 0.2661
vn 0.8592 0.4505 0.2424
vn -0.4768 0.8477 0.2326
vn -0.4862 0.8461 0.2183
vn -0.4661 0.8491 0.2485
vn 0.5201 -0.8237 0.2259
vn 0.5286 -0.8132 0.2433
vn 0.5406 -0.7972 0.2688
vn -0.1093 -0.1136 0.9875
vn -0.1126 -0.1321 0.9848
vn -0.1257 -0.2073 0.9702
vn -0.0138 -0.0082 0.9999
vn -0.6770 0.7355 0.0258
vn -0.6775 0.7351 0.0252
vn -0.6561 0.7530 0.0494
vn -0.5601 0.8275 0.0396
vn -0.5481 0.8360 0.0282
vn -0.5881 0.8060 0.0670
vn 0.4602 -0.8878 0.0000
vn 0.5057 -0.8627 0.0000
vn -0.1157 -0.0689 -0.9909
vn -0.0138 -0.0082 -0.9999
vn -0.5497 0.8344 -0.0404
vn -0.5611 0.8272 -0.0297
vn -0.5173 0.8529 -0.0701
vn -0.7108 0.7014 -0.0528
vn -0.7058 0.7060 -0.0590
vn -0.7510 0.6603 0.0000
vn 0.5373 -0.8417 -0.0533
vn 0.5469 -0.8363 -0.0394
vn 0.5730 -0.8196 0.0000
vn -0.5645 0.8227 -0.0668
vn -0.5632 0.8235 -0.0680
vn -0.5674 0.8209 -0.0641
vn -0.4750 0.8652 -0.1604
vn -0.4367 0.8903 -0.1290
vn -0.3482 0.9356 -0.0590
vn 0.4192 -0.9079 -0.0069
vn 0.4182 -0.9083 -0.0061
vn 0.4105 -0.9119 0.0000
vn -0.9035 -0.2446 -0.3519
vn -0.8716 -0.2965 -0.3904
vn -0.8445 -0.3347 -0.4182
vn 0.4317 0.2620 0.8631
vn 0.4259 0.2366 0.8733
vn 0.4432 0.3171 0.8385
vn -0.6270 0.6851 0.3708
vn -0.6381 0.6637 0.3903
vn -0.5454 0.8020 0.2437
vn -0.4599 0.8076 -0.3691
vn -0.4665 0.7941 -0.3896
vn -0.4119 0.8803 -0.2354
vn 0.5585 0.3966 -0.7286
vn 0.5472 0.4004 -0.7350
vn 0.3498 0.4520 -0.8206
vn 0.7918 -0.4442 -0.4192
vn -0.5309 -0.8419 0.0963
vn -0.3343 -0.9109 0.2419
vn 0.3580 -0.9279 0.1042
vn 0.5772 -0.8157 0.0382
vn -0.0334 0.0215 0.9992
vn -0.3841 0.7520 -0.5357
vn -0.3842 0.7520 -0.5357
vn -0.0048 -0.0375 -0.9993
vn -0.3775 0.7354 0.5627
vn 0.3400 -0.7675 0.5434
vn 0.0927 -0.8503 0.5181
vn 0.0931 -0.8503 0.5180
vn 0.0937 -0.8504 0.5177
vn -0.6051 0.5821 0.5432
vn -0.6048 0.5821 0.5434
vn -0.6041 0.5824 0.5440
vn -0.2318 -0.1330 -0.9636
vn -0.2315 -0.1325 -0.9638
vn -0.2312 -0.1320 -0.9639
vn -0.6111 0.5974 -0.5193
vn -0.6112 0.5974 -0.5192
vn -0.6110 0.5974 -0.5193
vn -0.2386 -0.0702 0.9686
vn -0.2391 -0.0711 0.9684
vn -0.2380 -0.0693 0.9688
vn 0.0976 -0.8835 -0.4582
vn 0.0977 -0.8835 -0.4582
vn 0.0974 -0.8835 -0.4583
vn -0.9699 -0.1210 -0.2114
vn -0.9710 -0.1432 -0.1915
vn -0.9694 -0.1148 -0.2169
vn 0.5699 -0.6321 0.5250
vn 0.5303 -0.6587 0.5338
vn 0.5261 -0.6614 0.5346
vn 0.5166 -0.6462 -0.5617
vn 0.5701 -0.6111 -0.5491
vn 0.5097 -0.6505 -0.5631
vn -0.8670 -0.3791 -0.3232
vn -0.8615 -0.3731 -0.3444
vn -0.8603 -0.3718 -0.3487
vn -0.1421 0.8391 -0.5250
vn -0.1509 0.8360 -0.5275
vn -0.1521 0.8356 -0.5279
vn -0.6848 -0.7117 0.1565
vn -0.6778 -0.7176 0.1598
vn -0.6762 -0.7190 0.1606
vn 0.2609 -0.8294 -0.4941
vn -0.4684 0.7204 -0.5115
vn 0.1777 -0.8645 -0.4701
vn -0.5224 -0.1887 0.8315
vn -0.3932 0.6835 0.6151
vn 0.1865 -0.6865 0.7028
vn -0.5119 -0.2431 -0.8239
vn 0.2698 0.1480 0.9515
vn -0.8696 -0.3593 0.3387
vn -0.7385 0.4284 0.5207
vn -0.7000 -0.6875 0.1932
vn -0.3372 -0.1738 -0.9252
vn -0.7383 0.4572 -0.4958
vn -0.9763 -0.1005 0.1915
vn -0.1717 0.8666 0.4685
vn -0.6895 -0.7087 -0.1493
vn 0.2184 0.0461 -0.9748
vn -0.0253 -0.0497 -0.9984
vn -0.3445 -0.1767 -0.9220
vn 0.1931 0.1051 0.9755
vn -0.0461 0.0127 0.9989
vn -0.3517 -0.1139 0.9292
vn 0.3360 0.1120 -0.9352
vn -0.1106 0.3159 -0.9423
vn -0.8108 -0.4763 0.3402
vn -0.4702 0.8805 -0.0601
vn 0.2893 -0.9572 0.0000
vn -0.3711 0.9024 0.2192
vn -0.5671 0.8214 0.0605
vn 0.5332 -0.8460 0.0000
vn 0.0000 -0.0000 -1.0000
vn 0.8484 0.4920 -0.1953
vn 0.5530 -0.8230 0.1298
vn 0.8200 0.4883 0.2985
vn -0.5020 0.8429 0.1938
vn 0.5023 -0.8435 0.1904
vn -0.0994 -0.0592 0.9933
vn -0.6988 0.7153 0.0000
vn -0.5176 0.8556 0.0000
vn -0.5917 0.8061 0.0000
vn -0.6666 0.7380 -0.1049
vn 0.5095 -0.8555 -0.0924
vn -0.5600 0.8255 -0.0709
vn -0.5420 0.8119 -0.2171
vn 0.4249 -0.9051 -0.0114
vn -0.9257 -0.2022 -0.3198
vn 0.4186 0.2063 0.8844
vn -0.7046 0.4698 0.5319
vn -0.5063 0.6758 -0.5357
vn 0.7685 0.3010 -0.5646
vn -0.5939 -0.7594 0.2658
vn 0.0920 -0.8502 0.5184
vn -0.6059 0.5818 0.5425
vn -0.2323 -0.1336 -0.9634
vn -0.6113 0.5973 -0.5192
vn -0.2399 -0.0723 0.9681
vn 0.0979 -0.8835 -0.4581
vn -0.9711 -0.1464 -0.1886
vn 0.5733 -0.6297 0.5242
vn 0.5754 -0.6074 -0.5477
vn -0.8677 -0.3798 -0.3207
vn -0.1412 0.8395 -0.5248
vn -0.6856 -0.7110 0.1561
usemtl paleta
s off
f 18/1/1 17/2/1 13/3/1
f 17/2/2 16/4/2 13/3/2
f 14/5/3 16/4/3 15/6/3
f 13/3/4 16/4/4 14/5/4
s 1
f 16/7/5 2/8/6 15/9/7
f 5/10/8 13/11/9 14/12/10
f 12/13/11 3/14/11 6/15/11
f 7/16/12 2/17/13 1/18/14
f 6/19/15 17/20/16 18/21/17
f 13/11/18 6/19/19 18/21/20
f 3/22/21 16/7/22 17/20/23
f 15/9/24 5/10/25 14/12/26
f 97/23/27 20/24/28 22/25/29
f 104/26/30 31/27/31 34/28/32
f 10/29/33 6/15/34 4/30/35
f 9/31/36 1/18/37 3/14/38
f 2/17/39 11/32/40 5/33/40
f 5/33/41 10/29/42 4/30/43
f 23/34/44 41/35/44 36/36/44
f 101/37/45 30/38/46 31/27/47
f 98/39/48 22/25/49 23/34/50
f 10/40/51 56/41/52 12/42/51
f 53/43/53 10/40/53 11/44/53
f 37/45/54 8/46/54 7/47/54
f 96/48/55 33/49/56 35/50/57
f 8/46/58 53/43/58 11/44/58
f 9/51/59 37/45/59 7/47/59
f 56/41/60 9/51/60 12/42/60
f 39/52/61 40/53/61 37/45/61
f 38/54/62 42/55/62 39/52/62
f 38/54/63 41/35/63 43/56/63
f 45/57/64 39/52/64 37/45/64
f 47/58/65 38/54/65 39/52/65
f 44/59/66 38/54/66 46/60/66
f 51/61/67 52/62/67 49/63/67
f 50/64/68 54/65/68 51/61/68
f 48/66/69 55/67/69 50/64/69
f 57/68/70 51/61/70 49/63/70
f 59/69/71 50/64/71 51/61/71
f 56/41/72 50/64/72 58/70/72
f 52/62/73 43/56/74 41/35/75
f 54/65/76 42/55/77 43/56/78
f 55/67/79 40/53/80 42/55/81
f 46/60/82 57/68/83 44/59/84
f 47/58/85 59/69/86 46/60/87
f 45/57/88 58/70/89 47/58/90
f 19/71/91 95/72/92 21/73/93
f 80/74/94 61/75/95 75/76/96
f 25/77/97 86/78/98 82/79/99
f 69/80/100 28/81/101 65/82/102
f 91/83/103 25/77/104 82/79/105
f 65/82/106 87/84/107 84/85/108
f 79/86/109 84/85/110 89/87/111
f 29/88/112 83/89/113 85/90/114
f 63/91/115 79/86/115 76/92/115
f 64/93/116 26/94/117 27/95/118
f 71/96/119 69/80/119 67/97/119
f 63/91/120 69/80/120 65/82/120
f 28/81/121 66/98/122 29/88/123
f 66/98/124 63/91/125 29/88/126
f 70/99/127 73/100/127 71/96/127
f 68/101/128 70/99/129 66/98/130
f 73/100/131 68/101/132 69/80/133
f 66/98/134 71/96/135 67/97/136
f 77/102/137 24/103/138 25/77/139
f 76/92/140 78/104/140 77/102/140
f 24/103/141 88/105/142 86/78/143
f 88/105/144 79/86/145 89/87/146
f 83/89/147 76/92/147 90/106/147
f 90/106/148 77/102/148 91/83/148
f 64/93/149 74/107/149 62/108/149
f 81/109/150 75/76/150 74/107/150
f 90/106/148 80/74/148 81/109/148
f 83/89/147 81/109/147 64/93/147
f 75/76/151 89/87/152 74/107/153
f 61/75/154 88/105/155 75/76/156
f 27/95/157 83/89/158 64/93/159
f 74/107/160 84/85/161 62/108/162
f 84/85/163 26/94/164 62/108/165
f 91/83/166 60/110/167 80/74/168
f 82/79/169 61/75/170 60/110/171
f 32/111/172 28/81/173 29/88/174
f 35/112/175 87/84/176 28/81/177
f 87/84/178 34/113/179 26/94/180
f 34/113/181 27/95/182 26/94/183
f 27/95/184 31/114/184 30/115/184
f 27/95/185 30/115/185 85/90/185
f 85/90/186 32/111/187 29/88/188
f 19/71/189 44/59/189 57/68/189
f 20/24/190 49/63/191 52/62/191
f 41/35/192 20/24/192 52/62/192
f 49/63/193 19/71/193 57/68/193
f 44/59/194 23/34/194 36/36/194
f 95/72/195 100/116/196 98/39/197
f 94/117/198 96/48/199 93/118/200
f 97/23/201 104/26/202 99/119/203
f 104/26/204 94/117/205 99/119/206
f 96/48/207 95/72/208 93/118/209
f 100/116/210 97/23/211 98/39/212
f 100/116/213 32/120/214 30/38/215
f 20/24/216 94/117/217 92/121/218
f 94/117/219 19/71/220 92/121/221
f 32/120/222 96/48/223 35/50/224
f 21/73/225 98/39/226 23/34/227
f 33/49/228 104/26/229 34/28/230
f 16/7/5 1/122/231 2/8/6
f 5/10/8 4/123/232 13/11/9
f 12/13/11 9/31/11 3/14/11
f 7/16/12 8/124/233 2/17/13
f 6/19/15 3/22/234 17/20/16
f 13/11/18 4/123/235 6/19/19
f 3/22/21 1/122/236 16/7/22
f 15/9/24 2/8/237 5/10/25
f 97/23/27 99/119/238 20/24/28
f 104/26/30 101/37/239 31/27/31
f 10/29/33 12/13/240 6/15/34
f 9/31/36 7/16/241 1/18/37
f 2/17/39 8/124/242 11/32/40
f 5/33/41 11/32/243 10/29/42
f 23/34/44 22/25/44 41/35/44
f 101/37/45 100/116/244 30/38/46
f 98/39/48 97/23/245 22/25/49
f 10/40/51 48/66/52 56/41/52
f 53/43/53 48/66/53 10/40/53
f 37/45/54 40/53/54 8/46/54
f 96/48/55 103/125/246 33/49/56
f 8/46/58 40/53/58 53/43/58
f 9/51/59 45/57/59 37/45/59
f 56/41/60 45/57/60 9/51/60
f 39/52/61 42/55/61 40/53/61
f 38/54/62 43/56/62 42/55/62
f 38/54/63 36/36/63 41/35/63
f 45/57/64 47/58/64 39/52/64
f 47/58/65 46/60/65 38/54/65
f 44/59/66 36/36/66 38/54/66
f 51/61/67 54/65/67 52/62/67
f 50/64/68 55/67/68 54/65/68
f 48/66/69 53/43/69 55/67/69
f 57/68/70 59/69/70 51/61/70
f 59/69/71 58/70/71 50/64/71
f 56/41/72 48/66/72 50/64/72
f 52/62/73 54/65/247 43/56/74
f 54/65/76 55/67/248 42/55/77
f 55/67/79 53/43/249 40/53/80
f 46/60/82 59/69/250 57/68/83
f 47/58/85 58/70/251 59/69/86
f 45/57/88 56/41/252 58/70/89
f 19/71/91 93/118/253 95/72/92
f 80/74/94 60/110/254 61/75/95
f 25/77/97 24/103/255 86/78/98
f 69/80/100 68/101/256 28/81/101
f 91/83/103 77/102/257 25/77/104
f 65/82/106 28/81/258 87/84/107
f 79/86/109 65/82/259 84/85/110
f 29/88/112 63/91/260 83/89/113
f 63/91/115 65/82/115 79/86/115
f 64/93/116 62/108/261 26/94/117
f 71/96/119 73/100/119 69/80/119
f 63/91/120 67/97/120 69/80/120
f 28/81/121 68/101/262 66/98/122
f 66/98/124 67/97/263 63/91/125
f 70/99/127 72/126/127 73/100/127
f 68/101/128 72/126/264 70/99/129
f 73/100/131 72/126/265 68/101/132
f 66/98/134 70/99/266 71/96/135
f 77/102/137 78/104/267 24/103/138
f 76/92/140 79/86/140 78/104/140
f 24/103/141 78/104/268 88/105/142
f 88/105/144 78/104/269 79/86/145
f 83/89/147 63/91/147 76/92/147
f 90/106/148 76/92/148 77/102/148
f 64/93/149 81/109/149 74/107/149
f 81/109/150 80/74/150 75/76/150
f 90/106/148 91/83/148 80/74/148
f 83/89/147 90/106/147 81/109/147
f 75/76/151 88/105/270 89/87/152
f 61/75/154 86/78/271 88/105/155
f 27/95/157 85/90/272 83/89/158
f 74/107/160 89/87/273 84/85/161
f 84/85/163 87/84/274 26/94/164
f 91/83/166 82/79/275 60/110/167
f 82/79/169 86/78/276 61/75/170
f 32/111/172 35/112/277 28/81/173
f 35/112/175 33/127/278 87/84/176
f 87/84/178 33/127/279 34/113/179
f 34/113/181 31/114/280 27/95/182
f 85/90/186 30/115/281 32/111/187
f 19/71/189 21/73/189 44/59/189
f 20/24/190 92/121/190 49/63/191
f 41/35/192 22/25/192 20/24/192
f 49/63/193 92/121/193 19/71/193
f 44/59/194 21/73/194 23/34/194
f 95/72/195 102/128/282 100/116/196
f 94/117/198 103/125/283 96/48/199
f 97/23/201 101/37/284 104/26/202
f 104/26/204 103/125/285 94/117/205
f 96/48/207 102/128/286 95/72/208
f 100/116/210 101/37/287 97/23/211
f 100/116/213 102/128/288 32/120/214
f 20/24/216 99/119/289 94/117/217
f 94/117/219 93/118/290 19/71/220
f 32/120/222 102/128/291 96/48/223
f 21/73/225 95/72/292 98/39/226
f 33/49/228 103/125/293 104/26/229
