# Blender v2.92.0 OBJ File: ''
# www.blender.org
mtllib astronauta_reloded_rightarmtop.mtl
o Astronauta_Cubo
v -1.025854 0.274086 0.029327
v -0.940250 0.234204 0.027558
v -1.060504 0.280005 -0.048843
v -0.906845 0.212935 -0.039887
v -1.025856 0.286995 -0.122020
v -0.927793 0.241445 -0.137288
v -0.999245 -0.019950 -0.084707
v -0.955138 -0.022809 -0.083058
v -0.957231 -0.022724 -0.021353
v -1.001351 -0.019865 -0.022615
v -0.937699 -0.022111 -0.051505
v -1.020566 -0.022550 -0.050975
v -0.945783 0.191164 -0.102795
v -1.014569 0.193958 -0.105051
v -1.011088 0.176772 -0.010938
v -0.949048 0.191296 -0.001517
v -1.017834 0.194090 -0.003772
v -0.921451 0.175112 -0.051373
v -0.911563 0.180837 -0.040711
v -1.037986 0.173012 -0.050637
v -1.050594 0.195421 -0.045469
v -0.948965 0.174248 -0.008900
v -1.008140 0.176651 -0.097857
v -1.006152 0.014648 -0.017017
v -1.003641 0.014545 -0.091081
v -0.929773 0.013231 -0.051472
v -0.946017 0.174129 -0.095820
v -0.936635 0.001781 -0.051557
v -0.950705 0.012393 -0.089345
v -0.954619 0.001061 -0.084096
v -0.953218 0.012495 -0.015282
v -0.956777 0.001149 -0.020464
v -1.021950 -0.000832 -0.051007
v -1.029072 0.011446 -0.050845
v -1.000026 0.001840 -0.085692
v -1.002192 0.001927 -0.021846
vt 0.000000 0.000000
vt 0.000000 0.000000
vt 0.000000 0.000000
vt 0.000000 0.000000
vt 0.000000 0.000000
vt 0.000000 0.000000
vt 0.000000 0.000000
vt 0.000000 0.000000
vt 0.000000 0.000000
vt 0.000000 0.000000
vt 0.000000 0.000000
vt 0.000000 0.000000
vt 0.078125 0.777344
vt 0.078125 0.777344
vt 0.078125 0.777344
vt 0.078125 0.777344
vt 0.078125 0.777344
vt 0.078125 0.777344
vt 0.199040 0.808348
vt 0.199040 0.808348
vt 0.199040 0.808348
vt 0.199040 0.808348
vt 0.199040 0.808348
vt 0.199040 0.808348
vt 0.078125 0.777344
vt 0.078125 0.777344
vt 0.078125 0.777344
vt 0.078125 0.777344
vt 0.199040 0.808348
vt 0.199040 0.808348
vt 0.199040 0.808348
vt 0.199040 0.808348
vt 0.199040 0.808348
vt 0.078125 0.777344
vt 0.078125 0.777344
vt 0.078125 0.777344
vt 0.078125 0.777344
vt 0.078125 0.777344
vt 0.078125 0.777344
vt 0.078125 0.777344
vt 0.078125 0.777344
vt 0.078125 0.777344
vt 0.078125 0.777344
vt 0.078125 0.777344
vt 0.078125 0.777344
vt 0.078125 0.777344
vt 0.078125 0.777344
vt 0.078125 0.777344
vt 0.078125 0.777344
vt 0.078125 0.777344
vt 0.078125 0.777344
vt 0.078125 0.777344
vt 0.078125 0.777344
vt 0.078125 0.777344
vt 0.078125 0.777344
vt 0.078125 0.777344
vt 0.078125 0.777344
vt 0.078125 0.777344
vt 0.078125 0.777344
vt 0.199040 0.808348
vn 0.4174 0.9012 -0.1168
vn 0.4028 0.9111 -0.0878
vn 0.4365 0.8844 0.1650
vn 0.3732 0.8900 0.2617
vn -0.0647 -0.9979 -0.0008
vn -0.0646 -0.9979 -0.0008
vn 0.0353 -0.9994 0.0026
vn 0.1300 -0.9915 0.0058
vn 0.8588 -0.2594 -0.4418
vn 0.8264 -0.4312 -0.3622
vn 0.8007 -0.5063 -0.3204
vn -0.8665 -0.1519 -0.4755
vn -0.8700 -0.1596 -0.4666
vn -0.8810 -0.1862 -0.4349
vn -0.0462 -0.3972 0.9166
vn 0.7799 -0.3890 -0.4904
vn 0.8493 -0.2319 -0.4743
vn 0.7679 -0.4108 -0.4916
vn -0.1243 -0.4501 0.8843
vn -0.1118 -0.4684 0.8764
vn -0.1635 -0.3911 0.9057
vn -0.8642 -0.1835 0.4685
vn -0.8493 -0.1574 0.5039
vn -0.8930 -0.2456 0.3772
vn 0.7205 -0.3966 0.5689
vn 0.7200 -0.2725 0.6382
vn 0.7107 -0.4887 0.5061
vn -0.1396 -0.3689 -0.9189
vn -0.1584 -0.3399 -0.9270
vn -0.2418 -0.2024 -0.9490
vn -0.6891 -0.5023 0.5223
vn -0.6957 -0.4941 0.5214
vn -0.6858 -0.5064 0.5227
vn 0.6302 -0.4177 0.6545
vn 0.4112 -0.8588 0.3056
vn 0.6482 -0.3000 0.6999
vn 0.0149 -0.3790 -0.9253
vn 0.0149 -0.3791 -0.9253
vn -0.7497 -0.4418 -0.4927
vn -0.7956 -0.3656 -0.4831
vn -0.8074 -0.3436 -0.4797
vn -0.8249 -0.0462 0.5633
vn -0.8250 -0.0462 0.5633
vn -0.8428 -0.0458 -0.5362
vn -0.8428 -0.0458 -0.5363
vn 0.8748 -0.0447 -0.4825
vn 0.0311 -0.0409 -0.9987
vn 0.8389 -0.0435 0.5426
vn -0.0343 -0.0385 0.9987
vn 0.7796 -0.4641 -0.4206
vn 0.8749 -0.0400 -0.4827
vn 0.7519 -0.4542 0.4779
vn 0.8391 -0.0362 0.5428
vn -0.8421 -0.0544 -0.5365
vn -0.8421 -0.0545 -0.5365
vn -0.7488 -0.4277 -0.5063
vn -0.7488 -0.4278 -0.5062
vn -0.8245 -0.0517 0.5635
vn -0.7282 -0.4295 0.5341
vn -0.7283 -0.4295 0.5341
vn 0.0345 -0.0442 -0.9984
vn 0.0159 -0.3924 -0.9196
vn 0.0224 -0.4189 -0.9078
vn 0.0244 -0.4271 -0.9039
vn -0.0310 -0.0366 0.9989
vn -0.0310 -0.0365 0.9989
vn -0.0309 -0.0366 0.9989
vn -0.0369 -0.3982 0.9166
vn -0.0440 -0.3722 0.9271
vn -0.0347 -0.4062 0.9131
vn 0.8588 -0.2595 -0.4418
vn 0.8619 -0.1140 -0.4940
vn 0.8263 -0.4312 -0.3622
vn -0.8509 -0.1201 -0.5115
vn 0.8587 -0.2043 -0.4701
vn -0.0497 -0.5533 0.8315
vn -0.7856 -0.0675 0.6151
vn 0.7010 -0.1211 0.7028
vn -0.1395 -0.3688 -0.9190
vn 0.0040 -0.5667 -0.8239
vn -0.7003 -0.4882 0.5207
vn 0.3273 -0.9250 0.1932
vn -0.7264 -0.4760 -0.4958
vn 0.0343 -0.0439 -0.9984
vn 0.0145 -0.3870 -0.9220
vn -0.0310 -0.0364 0.9989
vn -0.0454 -0.3669 0.9292
usemtl paleta
s off
f 1/1/1 2/2/1 3/3/1
f 2/2/2 4/4/2 3/3/2
f 5/5/3 4/4/3 6/6/3
f 3/3/4 4/4/4 5/5/4
f 7/7/5 8/8/5 9/9/5
f 10/10/6 7/7/6 9/9/6
f 11/11/7 9/9/7 8/8/7
f 10/10/8 12/12/8 7/7/8
s 1
f 4/13/9 13/14/10 6/15/11
f 14/16/12 3/17/13 5/18/14
f 15/19/15 16/20/15 17/21/15
f 18/22/16 13/23/17 19/24/18
f 17/25/19 2/26/20 1/27/21
f 3/17/22 17/25/23 1/27/24
f 16/28/25 4/13/26 2/26/27
f 6/15/28 14/16/29 5/18/30
f 20/29/31 17/21/32 21/30/33
f 22/31/34 19/24/35 16/20/36
f 13/23/37 23/32/38 14/33/38
f 14/33/39 20/29/40 21/30/41
f 20/34/42 24/35/43 15/36/42
f 25/37/44 20/34/44 23/38/45
f 26/39/46 27/40/46 18/41/46
f 27/40/47 25/37/47 23/38/47
f 22/42/48 26/39/48 18/41/48
f 24/35/49 22/42/49 15/36/49
f 28/43/50 29/44/50 26/39/50
f 11/45/51 30/46/51 28/43/51
f 31/47/52 28/43/52 26/39/52
f 32/48/53 11/45/53 28/43/53
f 33/49/54 7/50/55 12/51/54
f 34/52/56 35/53/57 33/49/56
f 10/54/58 33/49/58 12/51/58
f 24/35/59 33/49/59 36/55/60
f 7/50/61 30/46/61 8/56/61
f 35/53/62 29/44/63 30/46/64
f 32/48/65 10/54/66 9/57/67
f 31/47/68 36/55/69 32/48/70
f 4/13/71 19/58/72 13/14/73
f 14/16/12 21/59/74 3/17/13
f 15/19/15 22/31/15 16/20/15
f 18/22/16 27/60/75 13/23/17
f 17/25/19 16/28/76 2/26/20
f 3/17/22 21/59/77 17/25/23
f 16/28/25 19/58/78 4/13/26
f 6/15/79 13/14/80 14/16/29
f 20/29/31 15/19/81 17/21/32
f 22/31/34 18/22/82 19/24/35
f 13/23/37 27/60/37 23/32/38
f 14/33/39 23/32/83 20/29/40
f 20/34/42 34/52/43 24/35/43
f 25/37/44 34/52/44 20/34/44
f 26/39/46 29/44/46 27/40/46
f 27/40/47 29/44/47 25/37/47
f 22/42/48 31/47/48 26/39/48
f 24/35/49 31/47/49 22/42/49
f 28/43/50 30/46/50 29/44/50
f 11/45/51 8/56/51 30/46/51
f 31/47/52 32/48/52 28/43/52
f 32/48/53 9/57/53 11/45/53
f 33/49/54 35/53/55 7/50/55
f 34/52/56 25/37/57 35/53/57
f 10/54/58 36/55/58 33/49/58
f 24/35/59 34/52/59 33/49/59
f 7/50/84 35/53/84 30/46/84
f 35/53/62 25/37/85 29/44/63
f 32/48/65 36/55/86 10/54/66
f 31/47/68 24/35/87 36/55/69
